<?xml version="1.0" encoding="UTF-8" standalone="no"?>
<!-- Created with Inkscape (http://www.inkscape.org/) -->

<svg
   version="1.1"
   id="svg1"
   width="340.93399"
   height="40.857727"
   viewBox="0 0 340.93399 40.857727"
   xmlns="http://www.w3.org/2000/svg"
   xmlns:svg="http://www.w3.org/2000/svg">
  <defs
     id="defs1">
    <clipPath
       clipPathUnits="userSpaceOnUse"
       id="clipPath28">
      <path
         d="M 0,720 H 396.85 V 0 H 0 Z"
         id="path28" />
    </clipPath>
    <clipPath
       clipPathUnits="userSpaceOnUse"
       id="clipPath30">
      <path
         d="M 0,720 H 396.85 V 0 H 0 Z"
         transform="translate(-284.09931,-44.614801)"
         id="path30" />
    </clipPath>
    <clipPath
       clipPathUnits="userSpaceOnUse"
       id="clipPath32">
      <path
         d="M 0,720 H 396.85 V 0 H 0 Z"
         transform="translate(-295.60621,-67.419399)"
         id="path32" />
    </clipPath>
    <clipPath
       clipPathUnits="userSpaceOnUse"
       id="clipPath34">
      <path
         d="M 0,720 H 396.85 V 0 H 0 Z"
         transform="translate(-303.01741,-66.469299)"
         id="path34" />
    </clipPath>
    <clipPath
       clipPathUnits="userSpaceOnUse"
       id="clipPath36">
      <path
         d="M 0,720 H 396.85 V 0 H 0 Z"
         transform="translate(-316.97881,-58.188204)"
         id="path36" />
    </clipPath>
    <clipPath
       clipPathUnits="userSpaceOnUse"
       id="clipPath38">
      <path
         d="M 0,720 H 396.85 V 0 H 0 Z"
         transform="translate(-326.96101,-58.235199)"
         id="path38" />
    </clipPath>
    <clipPath
       clipPathUnits="userSpaceOnUse"
       id="clipPath40">
      <path
         d="M 0,720 H 396.85 V 0 H 0 Z"
         id="path40" />
    </clipPath>
    <clipPath
       clipPathUnits="userSpaceOnUse"
       id="clipPath42">
      <path
         d="M 0,720 H 396.85 V 0 H 0 Z"
         transform="translate(-343.34131,-44.436601)"
         id="path42" />
    </clipPath>
    <clipPath
       clipPathUnits="userSpaceOnUse"
       id="clipPath44">
      <path
         d="M 0,720 H 396.85 V 0 H 0 Z"
         transform="translate(-356.64851,-44.614801)"
         id="path44" />
    </clipPath>
    <clipPath
       clipPathUnits="userSpaceOnUse"
       id="clipPath46">
      <path
         d="M 0,720 H 396.85 V 0 H 0 Z"
         transform="translate(-364.93081,-66.469299)"
         id="path46" />
    </clipPath>
    <clipPath
       clipPathUnits="userSpaceOnUse"
       id="clipPath48">
      <path
         d="M 0,720 H 396.85 V 0 H 0 Z"
         transform="translate(-377.64441,-58.235199)"
         id="path48" />
    </clipPath>
    <clipPath
       clipPathUnits="userSpaceOnUse"
       id="clipPath50">
      <path
         d="M 0,720 H 396.85 V 0 H 0 Z"
         transform="translate(-277.8604,-16.629)"
         id="path50" />
    </clipPath>
    <clipPath
       clipPathUnits="userSpaceOnUse"
       id="clipPath52">
      <path
         d="M 0,720 H 396.85 V 0 H 0 Z"
         transform="translate(-287.31021,-16.450703)"
         id="path52" />
    </clipPath>
    <clipPath
       clipPathUnits="userSpaceOnUse"
       id="clipPath54">
      <path
         d="M 0,720 H 396.85 V 0 H 0 Z"
         transform="translate(-300.35961,-39.433403)"
         id="path54" />
    </clipPath>
    <clipPath
       clipPathUnits="userSpaceOnUse"
       id="clipPath56">
      <path
         d="M 0,720 H 396.85 V 0 H 0 Z"
         transform="translate(-308.93841,-16.450703)"
         id="path56" />
    </clipPath>
    <clipPath
       clipPathUnits="userSpaceOnUse"
       id="clipPath64">
      <path
         d="M 0,720 H 396.85 V 0 H 0 Z"
         transform="translate(-277.8604,-16.629)"
         id="path64" />
    </clipPath>
    <clipPath
       clipPathUnits="userSpaceOnUse"
       id="clipPath66">
      <path
         d="M 0,720 H 396.85 V 0 H 0 Z"
         transform="translate(-287.31021,-16.450703)"
         id="path66" />
    </clipPath>
    <clipPath
       clipPathUnits="userSpaceOnUse"
       id="clipPath68">
      <path
         d="M 0,720 H 396.85 V 0 H 0 Z"
         transform="translate(-300.35961,-39.433403)"
         id="path68" />
    </clipPath>
    <clipPath
       clipPathUnits="userSpaceOnUse"
       id="clipPath70">
      <path
         d="M 0,720 H 396.85 V 0 H 0 Z"
         transform="translate(-308.93841,-16.450703)"
         id="path70" />
    </clipPath>
    <clipPath
       clipPathUnits="userSpaceOnUse"
       id="clipPath72">
      <path
         d="M 0,720 H 396.85 V 0 H 0 Z"
         transform="translate(-325.95091,-30.249601)"
         id="path72" />
    </clipPath>
    <clipPath
       clipPathUnits="userSpaceOnUse"
       id="clipPath74">
      <path
         d="M 0,720 H 396.85 V 0 H 0 Z"
         transform="translate(-336.53501,-23.280098)"
         id="path74" />
    </clipPath>
    <clipPath
       clipPathUnits="userSpaceOnUse"
       id="clipPath76">
      <path
         d="M 0,720 H 396.85 V 0 H 0 Z"
         transform="translate(-347.57901,-30.249601)"
         id="path76" />
    </clipPath>
    <clipPath
       clipPathUnits="userSpaceOnUse"
       id="clipPath78">
      <path
         d="M 0,720 H 396.85 V 0 H 0 Z"
         transform="translate(-240.931,-67.652304)"
         id="path78" />
    </clipPath>
    <clipPath
       clipPathUnits="userSpaceOnUse"
       id="clipPath80">
      <path
         d="M 0,720 H 396.85 V 0 H 0 Z"
         transform="translate(-241.0921,-42.489699)"
         id="path80" />
    </clipPath>
    <clipPath
       clipPathUnits="userSpaceOnUse"
       id="clipPath82">
      <path
         d="M 0,720 H 396.85 V 0 H 0 Z"
         transform="translate(-209.9422,-42.501601)"
         id="path82" />
    </clipPath>
  </defs>
  <g
     id="layer-MC0"
     transform="translate(-126.08882,-903.7561)">
    <path
       id="path27"
       d="m 273.605,44.615 h -1.187 V 67.42 h 1.187 z"
       style="fill:#ffffff;fill-opacity:1;fill-rule:nonzero;stroke:none"
       transform="matrix(1.3333333,0,0,-1.3333333,-158.09122,997.61865)"
       clip-path="url(#clipPath28)" />
    <path
       id="path29"
       d="M 0,0 -3.661,19.411 V 0 h -1.068 v 22.805 h 1.37 L 0.227,3.523 H 0.259 V 22.805 H 1.328 V 0 Z"
       style="fill:#ffffff;fill-opacity:1;fill-rule:nonzero;stroke:none"
       transform="matrix(1.3333333,0,0,-1.3333333,220.70785,938.13225)"
       clip-path="url(#clipPath30)" />
    <path
       id="path31"
       d="m 0,0 h 1.011 l -2.25,-22.805 H -2.771 L -5.087,0 h 1.141 l 1.957,-19.379 h 0.032 z"
       style="fill:#ffffff;fill-opacity:1;fill-rule:nonzero;stroke:none"
       transform="matrix(1.3333333,0,0,-1.3333333,236.05038,907.72612)"
       clip-path="url(#clipPath32)" />
    <path
       id="path33"
       d="m 0,0 v -10.037 h 2.348 v -0.89 H 0 v -9.978 h 3.147 v -0.949 H -1.187 V 0.95 H 3.088 V 0 Z"
       style="fill:#ffffff;fill-opacity:1;fill-rule:nonzero;stroke:none"
       transform="matrix(1.3333333,0,0,-1.3333333,245.93198,908.99292)"
       clip-path="url(#clipPath34)" />
    <path
       id="path35"
       d="m 0,0 c -0.019,-0.685 -0.108,-1.212 -0.323,-1.548 -0.225,-0.325 -0.483,-0.56 -0.806,-0.669 0.304,-0.07 0.591,-0.3 0.806,-0.637 C -0.118,-3.179 0,-3.708 0,-4.403 v -5.842 c -0.019,-1.068 0.027,-1.865 0.082,-2.333 0.048,-0.462 0.113,-0.799 0.178,-0.995 h -1.185 c -0.117,0.282 -0.181,0.668 -0.214,1.157 -0.048,0.5 -0.049,1.213 -0.049,2.17 v 5.74 c -0.019,0.638 -0.103,1.098 -0.308,1.403 -0.219,0.32 -0.468,0.457 -0.792,0.457 h -1.81 V -13.573 H -5.285 V 9.231 h 2.87 C -1.79,9.235 -1.224,8.997 -0.734,8.53 -0.257,8.062 0,7.34 0,6.361 Z m -2.288,-1.756 c 0.315,0.003 0.588,0.147 0.792,0.441 0.19,0.308 0.308,0.758 0.308,1.39 V 6.221 C -1.207,6.979 -1.329,7.49 -1.608,7.807 -1.906,8.127 -2.19,8.281 -2.514,8.281 H -4.098 V -1.756 Z"
       style="fill:#ffffff;fill-opacity:1;fill-rule:nonzero;stroke:none"
       transform="matrix(1.3333333,0,0,-1.3333333,264.54718,920.03438)"
       clip-path="url(#clipPath36)" />
    <path
       id="path37"
       d="M 0,0 V 6.358 C -0.019,7.112 -0.138,7.624 -0.416,7.939 -0.711,8.258 -1.001,8.412 -1.342,8.412 H -1.598 C -1.92,8.417 -2.217,8.255 -2.494,7.939 -2.79,7.627 -2.91,7.097 -2.91,6.358 V 2.966 c -0.019,-0.984 0.212,-1.903 0.635,-2.708 0.409,-0.796 0.893,-1.587 1.413,-2.348 0.512,-0.742 0.993,-1.549 1.416,-2.364 0.417,-0.801 0.634,-1.723 0.634,-2.724 v -3.751 c -0.019,-1.008 -0.255,-1.756 -0.766,-2.201 -0.512,-0.431 -1.061,-0.669 -1.648,-0.669 h -0.425 c -0.286,0 -0.571,0.053 -0.864,0.159 -0.306,0.112 -0.555,0.269 -0.783,0.491 -0.237,0.224 -0.419,0.513 -0.571,0.871 -0.168,0.367 -0.228,0.799 -0.228,1.321 v 6.52 h 1.068 v -6.357 c -0.019,-0.752 0.146,-1.294 0.436,-1.598 0.284,-0.298 0.607,-0.456 0.95,-0.456 h 0.258 c 0.331,0 0.66,0.157 0.95,0.473 0.278,0.316 0.435,0.842 0.435,1.581 v 3.426 c -0.019,0.667 -0.102,1.26 -0.306,1.825 -0.22,0.567 -0.458,1.109 -0.759,1.631 -0.301,0.534 -0.628,1.038 -0.984,1.548 -0.364,0.523 -0.682,1.028 -0.984,1.55 -0.319,0.531 -0.553,1.076 -0.757,1.663 -0.208,0.597 -0.307,1.218 -0.307,1.893 v 3.751 c 0,1.031 0.26,1.755 0.78,2.201 0.517,0.455 1.072,0.668 1.656,0.668 h 0.326 C -0.76,9.366 -0.203,9.144 0.305,8.708 0.813,8.276 1.069,7.543 1.069,6.521 V 0 Z"
       style="fill:#ffffff;fill-opacity:1;fill-rule:nonzero;stroke:none"
       transform="matrix(1.3333333,0,0,-1.3333333,277.85678,919.97172)"
       clip-path="url(#clipPath38)" />
    <path
       id="path39"
       d="m 335.103,44.615 h -1.187 V 67.42 h 1.187 z"
       style="fill:#ffffff;fill-opacity:1;fill-rule:nonzero;stroke:none"
       transform="matrix(1.3333333,0,0,-1.3333333,-158.09122,997.61865)"
       clip-path="url(#clipPath40)" />
    <path
       id="path41"
       d="M 0,0 C -0.295,0 -0.572,0.055 -0.866,0.163 -1.16,0.277 -1.42,0.44 -1.648,0.667 -1.894,0.911 -2.061,1.189 -2.203,1.548 -2.355,1.925 -2.414,2.345 -2.414,2.866 v 17.429 c 0,0.529 0.071,0.96 0.211,1.318 0.13,0.364 0.327,0.653 0.555,0.88 0.211,0.237 0.489,0.396 0.782,0.505 0.293,0.127 0.583,0.163 0.866,0.163 h 0.456 c 0.581,0.004 1.137,-0.223 1.649,-0.668 0.509,-0.436 0.766,-1.177 0.766,-2.198 V 2.866 C 2.852,1.861 2.616,1.112 2.105,0.667 1.592,0.238 1.044,0 0.456,0 Z m 0.084,22.211 c -0.321,0.004 -0.619,-0.158 -0.896,-0.474 -0.296,-0.313 -0.415,-0.844 -0.415,-1.583 V 3.007 C -1.246,2.275 -1.089,1.74 -0.812,1.424 -0.554,1.109 -0.236,0.951 0.084,0.951 H 0.34 c 0.334,0 0.651,0.158 0.927,0.473 0.258,0.316 0.416,0.843 0.416,1.583 V 20.154 C 1.664,20.91 1.544,21.421 1.267,21.737 0.971,22.057 0.682,22.211 0.34,22.211 Z"
       style="fill:#ffffff;fill-opacity:1;fill-rule:nonzero;stroke:none"
       transform="matrix(1.3333333,0,0,-1.3333333,299.69718,938.36985)"
       clip-path="url(#clipPath42)" />
    <path
       id="path43"
       d="M 0,0 -3.661,19.411 V 0 h -1.068 v 22.805 h 1.37 L 0.227,3.523 H 0.259 V 22.805 H 1.328 V 0 Z"
       style="fill:#ffffff;fill-opacity:1;fill-rule:nonzero;stroke:none"
       transform="matrix(1.3333333,0,0,-1.3333333,317.44011,938.13225)"
       clip-path="url(#clipPath44)" />
    <path
       id="path45"
       d="m 0,0 v -10.037 h 2.348 v -0.89 H 0 v -9.978 h 3.147 v -0.949 H -1.187 V 0.95 H 3.088 V 0 Z"
       style="fill:#ffffff;fill-opacity:1;fill-rule:nonzero;stroke:none"
       transform="matrix(1.3333333,0,0,-1.3333333,328.48318,908.99292)"
       clip-path="url(#clipPath46)" />
    <path
       id="path47"
       d="M 0,0 V 6.358 C -0.019,7.112 -0.138,7.624 -0.416,7.939 -0.711,8.258 -1.001,8.412 -1.342,8.412 H -1.598 C -1.92,8.417 -2.217,8.255 -2.494,7.939 -2.79,7.627 -2.91,7.097 -2.91,6.358 V 2.966 c -0.019,-0.984 0.212,-1.903 0.635,-2.708 0.409,-0.796 0.894,-1.587 1.413,-2.348 0.512,-0.742 0.993,-1.549 1.416,-2.364 0.417,-0.801 0.634,-1.723 0.634,-2.724 v -3.751 c -0.019,-1.008 -0.255,-1.756 -0.766,-2.201 -0.512,-0.431 -1.061,-0.669 -1.648,-0.669 h -0.425 c -0.286,0 -0.571,0.053 -0.864,0.159 -0.306,0.112 -0.555,0.269 -0.783,0.491 -0.237,0.224 -0.419,0.513 -0.571,0.871 -0.168,0.367 -0.228,0.799 -0.228,1.321 v 6.52 h 1.068 v -6.357 c -0.019,-0.752 0.146,-1.294 0.436,-1.598 0.284,-0.298 0.607,-0.456 0.95,-0.456 h 0.258 c 0.331,0 0.66,0.157 0.95,0.473 0.278,0.316 0.435,0.842 0.435,1.581 v 3.426 c -0.019,0.667 -0.102,1.26 -0.306,1.825 -0.22,0.567 -0.458,1.109 -0.759,1.631 -0.301,0.534 -0.628,1.038 -0.984,1.548 -0.364,0.523 -0.682,1.028 -0.984,1.55 -0.319,0.531 -0.553,1.076 -0.757,1.663 -0.208,0.597 -0.307,1.218 -0.307,1.893 v 3.751 c 0,1.031 0.26,1.755 0.78,2.201 0.517,0.455 1.072,0.668 1.656,0.668 h 0.326 C -0.76,9.366 -0.203,9.144 0.305,8.708 0.813,8.276 1.07,7.543 1.07,6.521 V 0 Z"
       style="fill:#ffffff;fill-opacity:1;fill-rule:nonzero;stroke:none"
       transform="matrix(1.3333333,0,0,-1.3333333,345.43465,919.97172)"
       clip-path="url(#clipPath48)" />
    <path
       id="path49"
       d="M 0,0 -3.661,19.411 V 0 h -1.068 v 22.804 h 1.37 L 0.227,3.523 H 0.259 V 22.804 H 1.328 V 0 Z"
       style="fill:#000000;fill-opacity:1;fill-rule:nonzero;stroke:none"
       transform="matrix(1.3333333,0,0,-1.3333333,370.48053,937.828)"
       clip-path="url(#clipPath50)" />
    <path
       id="path51"
       d="M 0,0 C -0.295,0 -0.572,0.055 -0.866,0.163 -1.16,0.277 -1.42,0.44 -1.648,0.667 -1.894,0.911 -2.061,1.189 -2.203,1.548 -2.355,1.925 -2.414,2.345 -2.414,2.866 v 17.429 c 0,0.529 0.071,0.96 0.211,1.318 0.131,0.364 0.327,0.652 0.555,0.88 0.211,0.237 0.489,0.396 0.782,0.505 0.293,0.127 0.583,0.163 0.866,0.163 h 0.456 c 0.581,0.004 1.137,-0.223 1.649,-0.668 0.509,-0.436 0.766,-1.178 0.766,-2.198 V 2.866 C 2.852,1.861 2.616,1.112 2.105,0.667 1.592,0.238 1.044,0 0.456,0 Z m 0.084,22.211 c -0.321,0.004 -0.619,-0.158 -0.896,-0.474 -0.296,-0.313 -0.415,-0.844 -0.415,-1.583 V 3.007 C -1.246,2.275 -1.089,1.74 -0.812,1.424 -0.554,1.109 -0.236,0.951 0.084,0.951 H 0.34 c 0.334,0 0.651,0.158 0.927,0.473 0.258,0.316 0.416,0.843 0.416,1.583 V 20.154 C 1.664,20.91 1.544,21.421 1.267,21.737 0.971,22.056 0.682,22.211 0.34,22.211 Z"
       style="fill:#000000;fill-opacity:1;fill-rule:nonzero;stroke:none"
       transform="matrix(1.3333333,0,0,-1.3333333,383.08027,938.06573)"
       clip-path="url(#clipPath52)" />
    <path
       id="path53"
       d="m 0,0 h 1.011 l -2.25,-22.804 H -2.771 L -5.087,0 h 1.141 l 1.957,-19.379 h 0.032 z"
       style="fill:#000000;fill-opacity:1;fill-rule:nonzero;stroke:none"
       transform="matrix(1.3333333,0,0,-1.3333333,400.47947,907.42213)"
       clip-path="url(#clipPath54)" />
    <path
       id="path55"
       d="M 0,0 C -0.295,0 -0.572,0.055 -0.866,0.163 -1.16,0.277 -1.42,0.44 -1.648,0.667 -1.894,0.911 -2.061,1.189 -2.203,1.548 -2.355,1.925 -2.414,2.345 -2.414,2.866 v 17.429 c 0,0.529 0.071,0.96 0.211,1.318 0.13,0.364 0.327,0.652 0.555,0.88 0.211,0.237 0.489,0.396 0.782,0.505 0.293,0.127 0.583,0.163 0.866,0.163 h 0.456 c 0.581,0.004 1.137,-0.223 1.649,-0.668 0.509,-0.436 0.766,-1.178 0.766,-2.198 V 2.866 C 2.852,1.861 2.616,1.112 2.105,0.667 1.592,0.238 1.044,0 0.456,0 Z m 0.084,22.211 c -0.321,0.004 -0.619,-0.158 -0.896,-0.474 -0.296,-0.313 -0.415,-0.844 -0.415,-1.583 V 3.007 C -1.246,2.275 -1.089,1.74 -0.812,1.424 -0.554,1.109 -0.236,0.951 0.084,0.951 H 0.34 c 0.334,0 0.65,0.158 0.927,0.473 0.258,0.316 0.416,0.843 0.416,1.583 V 20.154 C 1.664,20.91 1.544,21.421 1.267,21.737 0.971,22.056 0.682,22.211 0.34,22.211 Z"
       style="fill:#000000;fill-opacity:1;fill-rule:nonzero;stroke:none"
       transform="matrix(1.3333333,0,0,-1.3333333,411.91787,938.06573)"
       clip-path="url(#clipPath56)" />
    <path
       id="path63"
       d="M 0,0 -3.661,19.411 V 0 h -1.068 v 22.804 h 1.37 L 0.227,3.523 H 0.259 V 22.804 H 1.328 V 0 Z"
       style="fill:#3194a3;fill-opacity:1;fill-rule:nonzero;stroke:none"
       transform="matrix(1.3333333,0,0,-1.3333333,370.48053,937.828)"
       clip-path="url(#clipPath64)" />
    <path
       id="path65"
       d="M 0,0 C -0.295,0 -0.572,0.055 -0.866,0.163 -1.16,0.277 -1.42,0.44 -1.648,0.667 -1.894,0.911 -2.061,1.189 -2.203,1.548 -2.355,1.925 -2.414,2.345 -2.414,2.866 v 17.429 c 0,0.529 0.071,0.96 0.211,1.318 0.131,0.364 0.327,0.652 0.555,0.88 0.211,0.237 0.489,0.396 0.782,0.505 0.293,0.127 0.583,0.163 0.866,0.163 h 0.456 c 0.581,0.004 1.137,-0.223 1.649,-0.668 0.509,-0.436 0.766,-1.178 0.766,-2.198 V 2.866 C 2.852,1.861 2.616,1.112 2.105,0.667 1.592,0.238 1.044,0 0.456,0 Z m 0.084,22.211 c -0.321,0.004 -0.619,-0.158 -0.896,-0.474 -0.296,-0.313 -0.415,-0.844 -0.415,-1.583 V 3.007 C -1.246,2.275 -1.089,1.74 -0.812,1.424 -0.554,1.109 -0.236,0.951 0.084,0.951 H 0.34 c 0.334,0 0.651,0.158 0.927,0.473 0.258,0.316 0.416,0.843 0.416,1.583 V 20.154 C 1.664,20.91 1.544,21.421 1.267,21.737 0.971,22.056 0.682,22.211 0.34,22.211 Z"
       style="fill:#3194a3;fill-opacity:1;fill-rule:nonzero;stroke:none"
       transform="matrix(1.3333333,0,0,-1.3333333,383.08027,938.06573)"
       clip-path="url(#clipPath66)" />
    <path
       id="path67"
       d="m 0,0 h 1.011 l -2.25,-22.804 H -2.771 L -5.087,0 h 1.141 l 1.957,-19.379 h 0.032 z"
       style="fill:#3194a3;fill-opacity:1;fill-rule:nonzero;stroke:none"
       transform="matrix(1.3333333,0,0,-1.3333333,400.47947,907.42213)"
       clip-path="url(#clipPath68)" />
    <path
       id="path69"
       d="M 0,0 C -0.295,0 -0.572,0.055 -0.866,0.163 -1.16,0.277 -1.42,0.44 -1.648,0.667 -1.894,0.911 -2.061,1.189 -2.203,1.548 -2.355,1.925 -2.414,2.345 -2.414,2.866 v 17.429 c 0,0.529 0.071,0.96 0.211,1.318 0.13,0.364 0.327,0.652 0.555,0.88 0.211,0.237 0.489,0.396 0.782,0.505 0.293,0.127 0.583,0.163 0.866,0.163 h 0.456 c 0.581,0.004 1.137,-0.223 1.649,-0.668 0.509,-0.436 0.766,-1.178 0.766,-2.198 V 2.866 C 2.852,1.861 2.616,1.112 2.105,0.667 1.592,0.238 1.044,0 0.456,0 Z m 0.084,22.211 c -0.321,0.004 -0.619,-0.158 -0.896,-0.474 -0.296,-0.313 -0.415,-0.844 -0.415,-1.583 V 3.007 C -1.246,2.275 -1.089,1.74 -0.812,1.424 -0.554,1.109 -0.236,0.951 0.084,0.951 H 0.34 c 0.334,0 0.65,0.158 0.927,0.473 0.258,0.316 0.416,0.843 0.416,1.583 V 20.154 C 1.664,20.91 1.544,21.421 1.267,21.737 0.971,22.056 0.682,22.211 0.34,22.211 Z"
       style="fill:#3194a3;fill-opacity:1;fill-rule:nonzero;stroke:none"
       transform="matrix(1.3333333,0,0,-1.3333333,411.91787,938.06573)"
       clip-path="url(#clipPath70)" />
    <path
       id="path71"
       d="M 0,0 V 6.358 C -0.019,7.112 -0.138,7.624 -0.416,7.939 -0.711,8.257 -1.001,8.412 -1.342,8.412 H -1.598 C -1.92,8.416 -2.217,8.254 -2.494,7.939 -2.79,7.627 -2.91,7.097 -2.91,6.358 V 2.965 c -0.019,-0.983 0.212,-1.902 0.635,-2.707 0.409,-0.796 0.894,-1.587 1.413,-2.349 0.512,-0.742 0.993,-1.548 1.416,-2.363 0.417,-0.801 0.634,-1.724 0.634,-2.724 v -3.751 c -0.019,-1.008 -0.255,-1.756 -0.766,-2.201 -0.512,-0.431 -1.061,-0.669 -1.648,-0.669 h -0.425 c -0.286,0 -0.571,0.053 -0.864,0.159 -0.306,0.112 -0.555,0.269 -0.783,0.491 -0.237,0.223 -0.419,0.513 -0.571,0.871 -0.168,0.367 -0.228,0.799 -0.228,1.321 v 6.52 h 1.068 v -6.357 c -0.019,-0.753 0.146,-1.294 0.436,-1.598 0.284,-0.298 0.607,-0.456 0.95,-0.456 h 0.258 c 0.331,0 0.66,0.157 0.95,0.472 0.278,0.316 0.435,0.842 0.435,1.582 v 3.425 c -0.019,0.667 -0.102,1.26 -0.306,1.826 -0.22,0.566 -0.457,1.109 -0.759,1.631 -0.301,0.534 -0.628,1.038 -0.984,1.548 -0.364,0.522 -0.682,1.028 -0.984,1.55 -0.319,0.531 -0.553,1.076 -0.757,1.663 -0.208,0.597 -0.307,1.218 -0.307,1.893 v 3.75 c 0,1.032 0.26,1.756 0.78,2.202 0.517,0.454 1.072,0.668 1.656,0.668 h 0.326 C -0.76,9.366 -0.203,9.144 0.305,8.708 0.813,8.275 1.07,7.542 1.07,6.521 V 0 Z"
       style="fill:#3194a3;fill-opacity:1;fill-rule:nonzero;stroke:none"
       transform="matrix(1.3333333,0,0,-1.3333333,436.6012,919.6672)"
       clip-path="url(#clipPath72)" />
    <path
       id="path73"
       d="m 0,0 h -2.609 l -0.652,-6.651 h -1.043 l 2.283,22.804 h 1.499 L 1.794,-6.651 H 0.652 Z m -2.51,0.891 h 2.413 l -1.175,11.804 h -0.032 z"
       style="fill:#3194a3;fill-opacity:1;fill-rule:nonzero;stroke:none"
       transform="matrix(1.3333333,0,0,-1.3333333,450.71333,928.95987)"
       clip-path="url(#clipPath74)" />
    <path
       id="path75"
       d="M 0,0 V 6.358 C -0.019,7.112 -0.138,7.624 -0.416,7.939 -0.711,8.257 -1.001,8.412 -1.342,8.412 H -1.598 C -1.92,8.416 -2.217,8.254 -2.494,7.939 -2.79,7.627 -2.91,7.097 -2.91,6.358 V 2.965 c -0.019,-0.983 0.212,-1.902 0.635,-2.707 0.409,-0.796 0.894,-1.587 1.413,-2.349 0.512,-0.742 0.993,-1.548 1.416,-2.363 0.417,-0.801 0.634,-1.724 0.634,-2.724 v -3.751 c -0.019,-1.008 -0.255,-1.756 -0.766,-2.201 -0.512,-0.431 -1.061,-0.669 -1.648,-0.669 h -0.425 c -0.286,0 -0.571,0.053 -0.864,0.159 -0.306,0.112 -0.555,0.269 -0.783,0.491 -0.237,0.223 -0.419,0.513 -0.571,0.871 -0.168,0.367 -0.228,0.799 -0.228,1.321 v 6.52 h 1.068 v -6.357 c -0.019,-0.753 0.146,-1.294 0.436,-1.598 0.284,-0.298 0.607,-0.456 0.95,-0.456 h 0.258 c 0.331,0 0.66,0.157 0.95,0.472 0.278,0.316 0.435,0.842 0.435,1.582 v 3.425 c -0.019,0.667 -0.102,1.26 -0.306,1.826 -0.22,0.566 -0.457,1.109 -0.759,1.631 -0.301,0.534 -0.628,1.038 -0.984,1.548 -0.364,0.522 -0.682,1.028 -0.984,1.55 -0.319,0.531 -0.553,1.076 -0.757,1.663 -0.208,0.597 -0.307,1.218 -0.307,1.893 v 3.75 c 0,1.032 0.26,1.756 0.78,2.202 0.517,0.454 1.072,0.668 1.656,0.668 h 0.326 C -0.76,9.366 -0.203,9.144 0.305,8.708 0.813,8.275 1.07,7.542 1.07,6.521 V 0 Z"
       style="fill:#3194a3;fill-opacity:1;fill-rule:nonzero;stroke:none"
       transform="matrix(1.3333333,0,0,-1.3333333,465.43867,919.6672)"
       clip-path="url(#clipPath76)" />
    <path
       id="path77"
       d="m 0,0 c 0.56,-0.112 0.96,-0.441 1.356,-0.809 3.198,-2.971 6.397,-5.94 9.616,-8.889 3.577,-3.276 7.153,-6.556 10.774,-9.784 1.888,-1.684 3.774,-3.365 5.612,-5.103 0.429,-0.407 0.495,-0.544 0.028,-0.987 -4.47,-4.231 -8.989,-8.407 -13.605,-12.479 -2.049,-1.808 -4.036,-3.685 -6.045,-5.538 -2.219,-2.047 -4.428,-4.106 -6.649,-6.151 -0.599,-0.551 -1.123,-0.744 -1.878,-0.043 -3.164,2.941 -6.393,5.812 -9.611,8.694 -0.514,0.46 -0.559,0.832 -0.024,1.301 2.053,1.798 4.109,3.592 6.13,5.427 3.05,2.768 6.055,5.586 9.115,8.343 0.762,0.685 0.782,1.147 0.008,1.836 -3.323,2.948 -6.629,5.916 -9.894,8.928 -1.799,1.659 -3.55,3.369 -5.435,4.933 -0.495,0.411 -0.304,0.742 0.094,1.1 3.214,2.886 6.42,5.782 9.628,8.677 C -0.541,-0.328 -0.345,-0.049 0,0"
       style="fill:#3194a3;fill-opacity:1;fill-rule:nonzero;stroke:none"
       transform="matrix(0.82607514,0,0,-0.81332954,167.5418,903.75612)"
       clip-path="url(#clipPath78)" />
    <path
       id="path79"
       d="m 0,0 c -0.052,-0.405 -0.364,-0.635 -0.63,-0.877 -3.322,-3.015 -6.656,-6.014 -9.975,-9.032 -2.144,-1.95 -4.261,-3.928 -6.399,-5.883 -2.769,-2.533 -5.555,-5.048 -8.316,-7.59 -0.718,-0.661 -1.204,-0.134 -1.683,0.273 -0.87,0.738 -1.616,1.602 -2.522,2.32 -1.276,1.011 -2.405,2.207 -3.615,3.304 -0.558,0.504 -0.7,0.952 -0.066,1.516 2.281,2.031 4.537,4.091 6.819,6.122 1.124,1.002 2.151,2.103 3.29,3.095 2.21,1.927 4.286,4.004 6.467,5.965 0.679,0.611 0.757,1.012 0.048,1.646 -3.432,3.073 -6.84,6.173 -10.246,9.275 -2.113,1.923 -4.197,3.877 -6.315,5.794 -0.644,0.583 -0.605,1.044 0.022,1.611 2.089,1.887 4.145,3.811 6.23,5.704 0.574,0.521 1.095,0.624 1.786,-0.022 3.843,-3.589 7.734,-7.126 11.619,-10.67 C -9.931,9.306 -6.381,6.056 -2.788,2.853 -1.997,2.147 -1.176,1.476 -0.437,0.713 -0.239,0.509 -0.009,0.322 0,0"
       style="fill:#3194a3;fill-opacity:1;fill-rule:nonzero;stroke:none"
       transform="matrix(0.82607514,0,0,-0.81332954,167.67488,924.22161)"
       clip-path="url(#clipPath80)" />
    <path
       id="path81"
       d="m 0,0 c -0.03,0.313 -0.247,0.507 -0.459,0.699 -3.434,3.125 -6.873,6.245 -10.303,9.374 -2.59,2.362 -5.148,4.758 -7.762,7.092 -0.827,0.739 -0.789,1.269 0.024,1.962 1.116,0.951 2.168,1.978 3.243,2.978 0.483,0.449 0.931,0.407 1.401,-0.027 2.007,-1.852 4.013,-3.707 6.035,-5.544 C -3.568,12.671 0.704,8.828 4.951,4.958 6.579,3.475 8.15,1.926 9.778,0.441 10.116,0.134 10.123,0.008 9.796,-0.288 7.107,-2.723 4.437,-5.18 1.753,-7.62 c -1.085,-0.987 -2.145,-2.003 -3.238,-2.984 -4.125,-3.706 -8.183,-7.485 -12.256,-11.248 -0.58,-0.536 -1.108,-0.622 -1.709,-0.056 -1.07,1.005 -2.147,2.004 -3.236,2.988 -0.597,0.538 -0.725,1.032 -0.061,1.628 2.456,2.205 4.891,4.433 7.343,6.642 1.029,0.927 2.004,1.91 3.056,2.818 2.683,2.317 5.268,4.746 7.892,7.131 C -0.245,-0.509 -0.033,-0.312 0,0"
       style="fill:#3194a3;fill-opacity:1;fill-rule:nonzero;stroke:none"
       transform="matrix(0.82607514,0,0,-0.81332954,141.94272,924.21193)"
       clip-path="url(#clipPath82)" />
  </g>
</svg>
