<?xml version="1.0" encoding="UTF-8" standalone="no"?>
<!-- Created with Inkscape (http://www.inkscape.org/) -->

<svg
   version="1.1"
   id="svg1"
   width="1000"
   height="1000"
   viewBox="0 0 1000 1000"
   xmlns="http://www.w3.org/2000/svg"
   xmlns:svg="http://www.w3.org/2000/svg">
  <defs
     id="defs1" />
  <g
     id="g1">
    <g
       id="g2"
       transform="matrix(0.93680464,0,0,0.93680464,31.592446,35.110572)">
      <path
         style="fill:#00a5b0"
         d="m 167,997.79545 c -2.32534,-1.56798 -3.60766,-3.28735 -3.82079,-5.12301 -0.25076,-2.15984 6.70225,-14.334 31.85227,-55.77076 22.76395,-37.5055 32.32228,-54.1203 32.68329,-56.81183 0.58059,-4.32858 -1.23648,-11.45938 -6.30784,-24.75414 C 214.58616,837.45478 202.2508,820.18738 188.5382,809.32507 172.70584,796.78363 154.42006,789.95398 131,787.83484 c -14.56848,-1.31821 -22.61207,-0.58187 -27.09974,2.48081 -2.23219,1.5234 -12.841636,17.45839 -35.062619,52.66277 -22.148045,35.08883 -32.67652,50.90522 -34.533766,51.87833 -2.352447,1.23257 -3.061808,1.18988 -5.934456,-0.35714 C 22.24036,891.1989 21.320306,889.35739 18.876822,875.5 16.926188,864.43764 16.58186,858.99734 16.566657,839 16.551289,818.78517 16.861904,813.85289 18.788595,803.71763 28.909213,750.47865 57.329717,713.29703 101.5,695.50897 c 14.58563,-5.87386 26.70776,-9.07311 60.79304,-16.0444 37.70892,-7.71242 56.22837,-13.39237 75.49479,-23.15438 22.83934,-11.57235 46.73895,-28.8736 71.62757,-51.85216 15.91343,-14.69215 283.20183,-282.8708 297.08081,-298.07028 22.14855,-24.25583 34.62978,-41.78402 45.49232,-63.88775 12.22173,-24.86949 15.55672,-38.2016 17.01001,-68 1.81782,-37.27262 2.97932,-44.43642 9.88385,-60.9609 C 701.27405,59.949582 763.95642,9.3336992 817.82092,1.3465239 c 8.1502,-1.20853423 10.92176,-1.28153569 13.1777,-0.34709383 4.24201,1.75709743 6.30455,4.48749753 5.82497,7.71112333 -0.22824,1.5341956 -14.73115,26.3496806 -32.22867,55.1455226 -22.25173,36.619884 -31.96491,53.483524 -32.31682,56.107214 -1.25854,9.38314 10.29671,37.52072 21.6543,52.72923 17.7454,23.76218 42.02302,36.53245 75.0676,39.48631 14.583,1.30358 22.61832,0.56394 27.09974,-2.49448 2.23591,-1.52593 12.79327,-17.40626 35.02494,-52.68435 21.78832,-34.57457 32.64426,-50.92269 34.4245,-51.84037 3.04811,-1.57125 6.52187,-0.50357 10.56784,3.24806 6.28328,5.82619 9.92855,50.83137 6.34131,78.29109 -6.25518,47.88246 -26.68803,83.26685 -61.20685,105.9944 -19.53363,12.86114 -37.57012,18.72588 -89.91127,29.23549 -13.83788,2.77852 -30.32173,6.61651 -36.63078,8.52887 C 762.27241,340.28964 732.18276,358.39637 698,388.65335 689.26494,396.38521 550.25219,534.4055 546.06866,539.5 c -0.45166,0.55 -35.20884,35.65 -77.23819,78 -42.02935,42.35 -79.59559,80.6 -83.48055,85 -27.19491,30.80026 -46.1149,65.70932 -51.82193,95.61605 -0.87994,4.61117 -2.01908,16.93395 -2.53143,27.38395 -1.44433,29.45886 -2.0308,35.31696 -4.52202,45.16954 -6.00924,23.76602 -20.45104,47.29839 -43.36756,70.66581 C 250.05524,975.03741 213.15545,995.0761 176,999.50056 c -4.76323,0.56724 -5.96885,0.33879 -9,-1.70511 z M 378.26313,657.00634 c 3.08507,-1.45015 41.48878,-39.2759 140.87006,-138.75 C 671.08257,366.16505 659.74138,378.6058 658.77344,365.0776 657.74943,350.7657 646.8814,340.964 632.10078,341.02196 c -3.42604,0.0134 -7.3481,0.80658 -10.10078,2.04265 -6.79128,3.04956 -275.17822,271.28484 -278.59282,278.43539 -1.76597,3.69815 -2.38447,6.69241 -2.37545,11.5 0.0201,10.72413 4.91194,18.79975 14.18808,23.42225 6.67924,3.3284 16.66649,3.58155 23.04332,0.58409 z M 821,983.38921 c -24.65778,-3.03093 -37.42983,-6.14004 -54.5,-13.26697 -28.30073,-11.81579 -51.98279,-33.13221 -65.16853,-58.65873 -9.04707,-17.5144 -14.17678,-34.71824 -22.26848,-74.68335 -2.75275,-13.59591 -5.91228,-28.27327 -7.02117,-32.61635 C 664.99687,776.57147 650.73518,748.04524 630.71404,721.5 617.85085,704.44521 608.99541,694.92474 562.56423,648.23229 l -47.99763,-48.26772 11.9506,-11.98182 11.95061,-11.98182 39.51609,39.44926 c 42.79022,42.71784 43.74608,43.48708 54.08796,43.52785 7.76116,0.0306 13.87037,-2.32242 18.87234,-7.26884 5.74657,-5.68275 7.27051,-8.97784 7.84124,-16.95451 0.89829,-12.55472 1.75755,-11.42784 -42.91137,-56.27603 l -39.86136,-40.02135 12.25309,-12.22367 12.25309,-12.22367 41.99056,42.06293 c 66.655,66.7699 83.03598,80.38652 115.99055,96.41665 24.43925,11.88802 37.1572,15.04595 66.5,16.51227 36.04155,1.80108 46.87668,3.58998 62.60452,10.3361 19.30741,8.2815 36.63209,20.66701 56.01525,40.04562 32.70211,32.69443 51.60326,68.12409 55.82997,104.65163 0.55186,4.76889 0.31829,6.01484 -1.68693,9 -1.52991,2.27758 -3.26257,3.57363 -5.05656,3.78236 -2.11557,0.24614 -14.3611,-6.75046 -54.4677,-31.12063 -28.4562,-17.29098 -52.82651,-32.00258 -54.15624,-32.69245 -7.23153,-3.75175 -34.76191,5.62859 -53.4581,18.2146 -3.36831,2.26751 -9.77677,7.75834 -14.24101,12.20184 -12.44921,12.3914 -19.85554,24.93625 -24.84698,42.08582 -5.00572,17.19865 -5.97398,42.6345 -1.88919,49.62862 1.50971,2.58498 13.13568,10.38908 52.894,35.50584 34.85581,22.01967 51.37,33.00635 52.25969,34.7677 1.0981,2.17394 1.05037,3.10267 -0.30634,5.96173 -2.97744,6.2745 -4.94845,7.27029 -18.99438,9.59635 -12.52994,2.07501 -45.4293,3.53722 -54.5,2.42226 z M 357.45611,443.88215 C 334.38025,420.76072 309.53742,396.47574 302.24983,389.91553 257.5589,349.68525 216.89668,331.15148 173,331.00369 157.23588,330.95062 139.5279,329.2487 130.01513,326.87241 84.673794,315.54611 33.502207,267.89453 11.489536,216.5 6.3857662,204.58387 1.5998663,187.35468 0.51728204,177 c -0.6077305,-5.81281 -0.42970852,-6.87003 1.68387206,-10 1.5533436,-2.30033 3.2964428,-3.6086 5.0854214,-3.81683 2.1066234,-0.24521 14.7590945,6.98894 55.9676985,32 L 116.5,227.5 l 6,-0.0643 c 16.5779,-0.17776 48.68627,-16.91746 63.46453,-33.08723 17.90697,-19.59308 26.33382,-42.78068 26.4746,-72.84843 0.0552,-11.79774 -0.14695,-13.33418 -2.18632,-16.61349 -1.80321,-2.89956 -12.34003,-9.991846 -53.33045,-35.896485 -37.52142,-23.712347 -51.33459,-32.944066 -52.02997,-34.773067 -1.14257,-3.005191 1.41075,-8.623508 5.17623,-11.389752 3.47166,-2.550396 24.51326,-5.769413 42.43138,-6.491301 39.87911,-1.606656 76.3077,7.57156 104.92527,26.436019 10.46293,6.897068 29.90457,26.905972 36.42553,37.48833 11.58075,18.793498 17.40511,36.461746 26.2171,79.529766 10.32393,50.45759 15.77299,66.31344 32.2046,93.70998 16.6267,27.7218 28.64869,41.57901 86.10931,99.25427 l 47.07841,47.25427 -11.96402,11.99527 -11.96401,11.99526 -39.51609,-39.44926 c -42.81151,-42.7391 -43.74156,-43.48716 -54.11688,-43.52785 -9.99114,-0.0392 -18.1363,4.38245 -23.37884,12.69129 -2.37404,3.7626 -3.05811,6.11143 -3.36581,11.55704 -0.71663,12.68262 -1.61942,11.50073 42.95117,56.22971 l 39.85836,40 -11.73205,11.73799 c -6.45263,6.45589 -11.9768,11.95064 -12.27594,12.21056 -0.29915,0.25991 -19.42415,-18.44496 -42.5,-41.5664 z"
         id="path2" />
    </g>
  </g>
</svg>
