<?xml version="1.0" encoding="UTF-8" standalone="no"?>
<!-- Created with Inkscape (http://www.inkscape.org/) -->

<svg
   version="1.1"
   id="svg1"
   width="1000"
   height="1000"
   viewBox="0 0 1000 1000"
   xmlns="http://www.w3.org/2000/svg"
   xmlns:svg="http://www.w3.org/2000/svg">
  <defs
     id="defs1" />
  <g
     id="g1">
    <g
       id="g9"
       transform="matrix(0.90746424,0,0,0.95041555,-208.92101,-223.51309)">
      <path
         style="fill:#02a5b0"
         d="m 355.85267,1166.8481 c 89.9152,-90.0538 95.61563,-95.9684 94.25,-97.7922 -0.79945,-1.0676 -1.45355,-3.5053 -1.45355,-5.417 0,-3.1108 1.35299,-4.8504 12.87918,-16.5589 l 12.87917,-13.0829 -1.87391,-3 c -2.09545,-3.3547 -2.49412,-10.427 -0.77881,-13.8158 0.6081,-1.2013 12.40668,-13.5361 26.21906,-27.41061 l 25.11341,-25.22639 -3.10874,-3.27361 c -3.93436,-4.14303 -4.76542,-6.92231 -3.35121,-11.2074 1.40968,-4.27139 4.83701,-6.56621 9.80667,-6.56621 2.99158,0 4.81176,0.8188 8.12545,3.65519 l 4.27026,3.65519 13.64297,-13.64297 13.64296,-13.64296 -6.18976,-6.26222 c -6.58532,-6.66242 -9.2767,-11.61011 -9.2767,-17.05379 0,-4.33676 16.01048,-52.0151 20.16662,-60.05509 2.76963,-5.35781 23.65051,-26.6468 161.51008,-164.66672 L 890.65503,516.97035 879.12615,505.48371 c -13.10349,-13.05546 -15.99056,-17.73825 -15.20933,-24.66931 1.34759,-11.95574 14.47942,-18.1718 25.16271,-11.91097 2.25838,1.3235 15.50655,14.1485 29.4404,28.5 13.93384,14.35151 25.85144,26.09365 26.48356,26.09365 0.63211,0 47.24576,-46.09812 103.58591,-102.44026 L 1151.026,318.61656 1140.5583,307.7818 c -11.5358,-11.94028 -13.9092,-15.81799 -13.9092,-22.72569 0,-14.09548 14.9161,-23.65781 27.4343,-17.5875 2.688,1.30345 20.8792,18.83982 53.6824,51.75 47.161,47.31489 49.6751,50.02038 50.7991,54.66647 2.1741,8.98701 -1.5998,17.48935 -9.7262,21.91233 -10.2995,5.60568 -16.7018,3.20922 -31.2833,-11.70974 l -10.4063,-10.64715 -102.9319,102.96203 -102.9319,102.96203 20.1059,20.81625 c 11.0583,11.44894 23.3235,23.96625 27.256,27.81625 8.3974,8.22126 10.0025,10.90162 10.0004,16.70034 0,11.22537 -10.5329,19.05337 -21.2916,15.82998 -3.1224,-0.93548 -7.1436,-4.21659 -16.861,-13.75788 L 1007.7342,634.2401 856.94167,785.51737 c -82.9359,83.2025 -154.56516,154.59045 -159.17612,158.63988 -4.80454,4.21943 -11.42166,8.85382 -15.5,10.85562 -9.81129,4.81575 -53.21275,19.48918 -57.56599,19.46225 -5.23785,-0.0324 -10.87061,-2.99127 -17.65921,-9.27632 l -6.03404,-5.58646 -13.1786,13.20578 c -7.24822,7.26317 -13.17859,13.49466 -13.17859,13.84775 0,0.35309 1.575,2.52714 3.5,4.83121 2.43262,2.91166 3.5,5.18662 3.5,7.45975 0,3.69937 -3.12036,8.25527 -6.54622,9.55777 -3.14595,1.1961 -8.59806,-0.4777 -11.45235,-3.516 -1.29253,-1.3758 -2.83756,-2.5015 -3.4334,-2.5015 -0.59583,0 -12.10489,11.0703 -25.57568,24.6008 -13.47079,13.5304 -25.9404,25.2304 -27.71023,26 -4.46313,1.9406 -8.18278,1.7502 -12.82068,-0.6564 l -3.96144,-2.0556 -10.5,11.0935 c -14.42106,15.2362 -18.2116,17.3595 -23.88998,13.3822 -2.32615,-1.6293 -2.68388,-1.287 -94.47251,90.3989 -51.68671,51.6289 -94.11313,93.2207 -96.63751,94.7366 -2.79804,1.6801 31.69636,-33.5501 91.20355,-93.149 z M 651.05746,958.90799 c 25.75365,-8.84709 32.79643,-12.12341 39.89638,-18.55986 l 5.19528,-4.70978 -23.97504,-24.05348 -23.97505,-24.05348 4.43325,-4.51716 c 2.43829,-2.48443 4.89862,-4.51715 5.46739,-4.51715 0.56878,0 11.61694,10.57592 24.55149,23.50203 l 23.51734,23.50204 15.73862,-15.76171 15.73861,-15.76171 -23.49831,-23.48234 c -12.92406,-12.91529 -23.4983,-23.95475 -23.4983,-24.53212 0,-0.57738 2.03272,-3.04474 4.51715,-5.48303 l 4.51716,-4.43325 23.98477,23.96915 23.98477,23.96916 15.74218,-15.74219 15.74219,-15.74218 -23.96916,-23.98477 -23.96915,-23.98477 4.43325,-4.51716 c 2.43829,-2.48443 4.89862,-4.51715 5.46739,-4.51715 0.56878,0 11.61694,10.57592 24.55149,23.50203 l 23.51734,23.50204 15.73862,-15.76171 15.73861,-15.76171 -23.49831,-23.48234 c -12.92406,-12.91529 -23.4983,-23.95475 -23.4983,-24.53212 0,-0.57738 2.03272,-3.04474 4.51715,-5.48303 l 4.51716,-4.43325 23.98477,23.96915 23.98477,23.96916 15.74218,-15.74219 15.74219,-15.74218 -23.96916,-23.98477 -23.96915,-23.98477 4.43325,-4.51716 c 2.43829,-2.48443 4.89862,-4.51715 5.46739,-4.51715 0.56878,0 11.61694,10.57592 24.55149,23.50203 l 23.51734,23.50204 15.73862,-15.76171 15.73861,-15.76171 -23.49831,-23.48234 c -12.92406,-12.91529 -23.4983,-23.95475 -23.4983,-24.53212 0,-0.57738 2.03272,-3.04474 4.51715,-5.48303 l 4.51716,-4.43325 23.98477,23.96915 23.98477,23.96916 15.74218,-15.74219 15.74219,-15.74218 -23.96916,-23.98477 -23.96915,-23.98477 4.43325,-4.51716 c 2.43829,-2.48443 4.89862,-4.51715 5.46739,-4.51715 0.56878,0 11.61606,10.57504 24.54953,23.50008 l 23.51539,23.50008 23.74019,-23.75566 23.74022,-23.75566 -53.50266,-53.49442 -53.50263,-53.49442 -156.40337,156.5 c -105.64093,105.7062 -157.5571,158.33176 -159.9581,162.14381 -3.27431,5.19861 -16.94997,42.19189 -20.02647,54.17254 -2.41785,9.41571 -3.15661,8.38741 29.76709,41.43365 l 30.13783,30.25 h 4.90455 c 3.50124,0 11.2255,-2.17142 26.99622,-7.58909 z"
         id="path9" />
    </g>
  </g>
</svg>
