<?xml version="1.0" encoding="UTF-8" standalone="no"?>
<!-- Created with Inkscape (http://www.inkscape.org/) -->

<svg
   version="1.1"
   id="svg1"
   width="1000"
   height="1000"
   viewBox="0 0 1000 1000"
   xmlns="http://www.w3.org/2000/svg"
   xmlns:svg="http://www.w3.org/2000/svg">
  <defs
     id="defs1" />
  <g
     id="g1">
    <g
       id="g4"
       transform="matrix(0.89210826,0,0,0.89210826,-895.79272,36.77069)">
      <g
         id="g2"
         transform="translate(1058,8)">
        <path
           style="fill:#01a5b0"
           d="m 67.269695,998.51741 c -4.439011,-1.92976 -7.261338,-6.89473 -7.265957,-12.7821 -0.0032,-4.03304 0.521737,-5.33825 3.418337,-8.5 L 66.844151,973.5 106.17208,973 145.5,972.5 145.76778,948.25 146.03556,924 H 115.97562 C 83.681551,924 76.437377,923.22647 64.72121,918.52711 45.240791,910.71349 29.535104,894.35363 21.900001,873.92233 L 19.5,867.5 19.223749,583.5 C 18.916005,267.1222 18.358436,292.71099 25.886431,277.72607 35.315703,258.95653 51.434726,245.29526 71.48736,239.07816 l 8.01264,-2.48424 54.76141,-0.36544 54.76142,-0.36543 -0.26142,-39.68153 L 188.5,156.5 l -11,-0.52574 c -8.25922,-0.39474 -12.12123,-1.04925 -15.5,-2.62683 -7.12649,-3.32742 -12.58185,-8.75262 -16.208,-16.11838 l -3.292,-6.687 V 78.021027 25.5 l 2.64796,-5.647962 c 3.2262,-6.881319 9.01809,-12.853439 16.06789,-16.567886 L 166.5,0.5 H 501 835.5 l 5.34058,2.9582307 c 7.11756,3.942523 12.49532,9.4896333 15.87811,16.3781103 L 859.5,25.5 V 78 130.5 l -2.67018,5.6965 c -3.26458,6.96457 -9.71628,13.60004 -16.3559,16.82179 -4.00578,1.94373 -7.11499,2.51746 -15.97392,2.9476 l -11,0.53411 -0.26141,39.68152 -0.26142,39.68153 54.76142,0.38233 c 53.3002,0.37214 54.96153,0.44229 62.26141,2.62898 20.0349,6.0015 37.00082,20.56578 46.1599,39.62564 7.34888,15.29288 6.80346,-8.93241 6.82274,303.0399 0.0193,312.48061 0.63973,285.54564 -6.9324,300.9601 -7.37312,15.00933 -18.72555,26.34539 -33.55024,33.50186 -14.17445,6.84257 -16.73887,7.25351 -48.25,7.7319 L 866,924.16264 V 948.58132 973 h 37.04966 c 40.91398,0 41.17244,0.0362 44.99082,6.29855 4.08902,6.70621 1.30407,16.40606 -5.53026,19.26163 -5.12937,2.14322 -870.309443,2.10092 -875.240525,-0.0428 z M 347,948.5 V 924 h -87 -87 v 24.5 24.5 h 87 87 z m 287,0 V 924 H 504 374 v 24.5 24.5 h 130 130 z m 205,0 V 924 h -89 -89 v 24.5 24.5 h 89 89 z m 89.46132,-55.79142 c 12.96754,-6.07212 21.90889,-15.7982 25.68893,-27.9435 C 955.93118,859.04294 956,848.50795 956,581.621 956,277.88099 956.40274,298.4933 950.263,288 c -3.55842,-6.08164 -11.78553,-14.63588 -17.03479,-17.71215 -2.3649,-1.38592 -7.0238,-3.36766 -10.35311,-4.40385 C 916.98694,264.05139 905.47862,264 501,264 c -404.478617,0 -415.986939,0.0514 -421.875102,1.884 -3.32931,1.03619 -7.981903,3.01456 -10.339094,4.39636 -6.649653,3.89807 -15.450111,13.78818 -19.070746,21.43204 L 46.5,298.5 l -0.264819,280 c -0.261536,276.52926 -0.240289,280.08103 1.714116,286.5371 4.109742,13.57587 15.804549,24.89393 30.550703,29.56651 3.206912,1.01617 87.27424,1.23068 424,1.08193 L 922.5,895.5 Z M 484.8125,827.31689 c 0.72187,-0.28887 1.58438,-0.25335 1.91667,0.0789 0.33229,0.33229 -0.25834,0.56864 -1.3125,0.52522 -1.16495,-0.048 -1.4019,-0.28494 -0.60417,-0.60416 z m 31.45653,-0.01 c 0.97297,-0.25354 2.32297,-0.23687 3,0.0371 0.67703,0.27393 -0.11903,0.48137 -1.76903,0.46099 -1.65,-0.0204 -2.20394,-0.2445 -1.23097,-0.49804 z m -51.45653,-1.99012 c 0.72187,-0.28887 1.58438,-0.25335 1.91667,0.0789 0.33229,0.33229 -0.25834,0.56864 -1.3125,0.52522 -1.16495,-0.048 -1.4019,-0.28494 -0.60417,-0.60416 z m 23.94916,-25.02415 c 1.24391,-0.23919 3.04391,-0.23011 4,0.0202 0.95609,0.25029 -0.0617,0.446 -2.26166,0.4349 -2.2,-0.0111 -2.98225,-0.21589 -1.73834,-0.45508 z m 34.05084,-0.97585 c 0.72187,-0.28887 1.58438,-0.25335 1.91667,0.0789 0.33229,0.33229 -0.25834,0.56864 -1.3125,0.52522 -1.16495,-0.048 -1.4019,-0.28494 -0.60417,-0.60416 z m 8,-1 c 0.72187,-0.28887 1.58438,-0.25335 1.91667,0.0789 0.33229,0.33229 -0.25834,0.56864 -1.3125,0.52522 -1.16495,-0.048 -1.4019,-0.28494 -0.60417,-0.60416 z M 131,790.29377 c -0.825,-0.30158 -2.55526,-1.50356 -3.84501,-2.67105 C 122.12359,783.06827 122,782.16631 122,750 c 0,-32.30305 0.0924,-32.96174 5.30669,-37.83197 5.33725,-4.98506 15.76261,-3.38328 19.66768,3.02179 1.91144,3.13514 2.01815,4.97584 2.01815,34.81018 0,29.83434 -0.10671,31.67504 -2.01815,34.81018 -2.94814,4.83552 -10.58027,7.45543 -15.97437,5.48359 z m 729.26969,-0.72187 c -1.77666,-0.80233 -4.13748,-2.94674 -5.24626,-4.76535 -1.90863,-3.13051 -2.01595,-4.98357 -2.01595,-34.80655 0,-29.83434 0.10671,-31.67504 2.01815,-34.81018 3.90507,-6.40507 14.33043,-8.00685 19.66768,-3.02179 C 879.90761,717.03826 880,717.69695 880,750 c 0,32.33658 -0.0875,32.957 -5.34272,37.86582 -3.15467,2.94674 -9.87553,3.7437 -14.38759,1.70608 z M 683,747.5 c 1.29175,-1.375 2.57363,-2.5 2.84863,-2.5 0.275,0 -0.55688,1.125 -1.84863,2.5 -1.29175,1.375 -2.57363,2.5 -2.84863,2.5 -0.275,0 0.55688,-1.125 1.84863,-2.5 z m -368.12756,-3.25 c -1.24387,-1.58606 -1.2085,-1.62143 0.37756,-0.37756 0.9625,0.75485 1.75,1.54235 1.75,1.75 0,0.82304 -0.82119,0.29331 -2.12756,-1.37244 z M 648,743.62244 c 0,-0.20765 0.7875,-0.99515 1.75,-1.75 1.58606,-1.24387 1.62143,-1.2085 0.37756,0.37756 C 648.82119,743.91575 648,744.44548 648,743.62244 Z m 14,-14 c 0,-0.20765 0.7875,-0.99515 1.75,-1.75 1.58606,-1.24387 1.62143,-1.2085 0.37756,0.37756 C 662.82119,729.91575 662,730.44548 662,729.62244 Z m 7,-8 c 0,-0.20765 0.7875,-0.99515 1.75,-1.75 1.58606,-1.24387 1.62143,-1.2085 0.37756,0.37756 C 669.82119,721.91575 669,722.44548 669,721.62244 Z M 127.51368,651.8321 c -5.79316,-4.5569 -5.51381,2.54068 -5.51213,-140.04998 0.001,-123.01026 0.11172,-131.49817 1.75,-134.71104 2.62416,-5.14628 6.54819,-7.58342 12.0809,-7.50318 2.75152,0.0399 5.83405,0.8227 7.47592,1.8985 C 149.35385,375.42755 149,366.65511 149,512.56799 v 133.6673 l -3.88235,3.88236 C 141.55197,653.68332 140.78807,654 135.75251,654 c -4.11014,0 -6.17278,-0.54275 -8.23883,-2.1679 z M 856.88235,650.11765 853,646.23529 V 512.26553 378.29577 l 2.28656,-3.39789 c 5.71512,-8.49283 19.30853,-6.89788 23.33462,2.7379 2.05451,4.91714 2.05451,263.8113 0,268.72844 -2.21324,5.29702 -6.00317,7.63578 -12.37369,7.63578 -5.03556,0 -5.79946,-0.31668 -9.36514,-3.88235 z m -574.8034,-38.70098 c 0.048,-1.16495 0.28494,-1.4019 0.60416,-0.60417 0.28887,0.72187 0.25335,1.58438 -0.0789,1.91667 -0.33229,0.33229 -0.56864,-0.25834 -0.52522,-1.3125 z m -1,-8 c 0.048,-1.16495 0.28494,-1.4019 0.60416,-0.60417 0.28887,0.72187 0.25335,1.58438 -0.0789,1.91667 -0.33229,0.33229 -0.56864,-0.25834 -0.52522,-1.3125 z M 253.15789,595 c 0,-1.375 0.22698,-1.9375 0.50439,-1.25 0.27741,0.6875 0.27741,1.8125 0,2.5 -0.27741,0.6875 -0.50439,0.125 -0.50439,-1.25 z m 495,0 c 0,-1.375 0.22698,-1.9375 0.50439,-1.25 0.27741,0.6875 0.27741,1.8125 0,2.5 -0.27741,0.6875 -0.50439,0.125 -0.50439,-1.25 z m -467.87188,-6.5 c 0.008,-2.75 0.20172,-3.75631 0.43157,-2.23625 0.22986,1.52006 0.22371,3.77006 -0.0136,5 -0.23736,1.22994 -0.42542,-0.0137 -0.41792,-2.76375 z m 441,0 c 0.008,-2.75 0.20172,-3.75631 0.43157,-2.23625 0.22986,1.52006 0.22371,3.77006 -0.0136,5 -0.23736,1.22994 -0.42542,-0.0137 -0.41792,-2.76375 z m 0.0136,-16.5 c 0,-3.025 0.18747,-4.2625 0.41659,-2.75 0.22913,1.5125 0.22913,3.9875 0,5.5 -0.22912,1.5125 -0.41659,0.275 -0.41659,-2.75 z m -441.01365,-0.5 c 0.008,-2.75 0.20172,-3.75631 0.43157,-2.23625 0.22986,1.52006 0.22371,3.77006 -0.0136,5 -0.23736,1.22994 -0.42542,-0.0137 -0.41792,-2.76375 z M 748.15789,566 c 0,-1.375 0.22698,-1.9375 0.50439,-1.25 0.27741,0.6875 0.27741,1.8125 0,2.5 -0.27741,0.6875 -0.50439,0.125 -0.50439,-1.25 z m -495,-1 c 0,-1.375 0.22698,-1.9375 0.50439,-1.25 0.27741,0.6875 0.27741,1.8125 0,2.5 -0.27741,0.6875 -0.50439,0.125 -0.50439,-1.25 z m 28,-8 c 0,-1.375 0.22698,-1.9375 0.50439,-1.25 0.27741,0.6875 0.27741,1.8125 0,2.5 -0.27741,0.6875 -0.50439,0.125 -0.50439,-1.25 z m 438.92106,0.41667 c 0.048,-1.16495 0.28494,-1.4019 0.60416,-0.60417 0.28887,0.72187 0.25335,1.58438 -0.0789,1.91667 -0.33229,0.33229 -0.56864,-0.25834 -0.52522,-1.3125 z m 27,-4 c 0.048,-1.16495 0.28494,-1.4019 0.60416,-0.60417 0.28887,0.72187 0.25335,1.58438 -0.0789,1.91667 -0.33229,0.33229 -0.56864,-0.25834 -0.52522,-1.3125 z m -28,-4 c 0.048,-1.16495 0.28494,-1.4019 0.60416,-0.60417 0.28887,0.72187 0.25335,1.58438 -0.0789,1.91667 -0.33229,0.33229 -0.56864,-0.25834 -0.52522,-1.3125 z m -464,-4 c 0.048,-1.16495 0.28494,-1.4019 0.60416,-0.60417 0.28887,0.72187 0.25335,1.58438 -0.0789,1.91667 -0.3323,0.33229 -0.56864,-0.25834 -0.52522,-1.3125 z m 491,0 c 0.048,-1.16495 0.28494,-1.4019 0.60416,-0.60417 0.28887,0.72187 0.25335,1.58438 -0.0789,1.91667 -0.33229,0.33229 -0.56864,-0.25834 -0.52522,-1.3125 z M 335,434.62244 c 0,-0.20765 0.7875,-0.99515 1.75,-1.75 1.58606,-1.24387 1.62143,-1.2085 0.37756,0.37756 C 335.82119,434.91575 335,435.44548 335,434.62244 Z M 662.40499,430.75 660.5,428.5 l 2.25,1.90499 c 1.2375,1.04774 2.25,2.06024 2.25,2.25 0,0.80025 -0.80479,0.20945 -2.59501,-1.90499 z m 26.46745,-11.5 c -1.24387,-1.58606 -1.2085,-1.62143 0.37756,-0.37756 0.9625,0.75485 1.75,1.54235 1.75,1.75 0,0.82304 -0.82119,0.29331 -2.12756,-1.37244 z M 316,414.62244 c 0,-0.20765 0.7875,-0.99515 1.75,-1.75 1.58606,-1.24387 1.62143,-1.2085 0.37756,0.37756 C 316.82119,414.91575 316,415.44548 316,414.62244 Z M 680.92431,410.25 678.5,407.5 l 2.75,2.42431 c 2.57029,2.26589 3.20859,3.07569 2.42431,3.07569 -0.17912,0 -1.41662,-1.2375 -2.75,-2.75 z m -9.48722,-9.5 -2.93709,-3.25 3.25,2.93709 c 1.7875,1.6154 3.25,3.0779 3.25,3.25 0,0.77256 -0.82513,0.0924 -3.56291,-2.93709 z M 334,396.62244 c 0,-0.20765 0.7875,-0.99515 1.75,-1.75 1.58606,-1.24387 1.62143,-1.2085 0.37756,0.37756 C 334.82119,396.91575 334,397.44548 334,396.62244 Z m 189.8125,-36.30555 c 0.72187,-0.28887 1.58438,-0.25335 1.91667,0.0789 0.33229,0.33229 -0.25834,0.56864 -1.3125,0.52522 -1.16495,-0.048 -1.4019,-0.28494 -0.60417,-0.60416 z m -25.52599,-1.05697 c 3.18258,-0.19905 8.13258,-0.1972 11,0.004 2.86742,0.20131 0.26349,0.36417 -5.78651,0.36191 -6.05,-0.002 -8.39607,-0.16696 -5.21349,-0.36601 z M 473.8125,333.31689 c 0.72187,-0.28887 1.58438,-0.25335 1.91667,0.0789 0.33229,0.33229 -0.25834,0.56864 -1.3125,0.52522 -1.16495,-0.048 -1.4019,-0.28494 -0.60417,-0.60416 z m 51,0 c 0.72187,-0.28887 1.58438,-0.25335 1.91667,0.0789 0.33229,0.33229 -0.25834,0.56864 -1.3125,0.52522 -1.16495,-0.048 -1.4019,-0.28494 -0.60417,-0.60416 z M 485.75,332.33772 c 0.6875,-0.27741 1.8125,-0.27741 2.5,0 0.6875,0.27741 0.125,0.50439 -1.25,0.50439 -1.375,0 -1.9375,-0.22698 -1.25,-0.50439 z m 26,0 c 0.6875,-0.27741 1.8125,-0.27741 2.5,0 0.6875,0.27741 0.125,0.50439 -1.25,0.50439 -1.375,0 -1.9375,-0.22698 -1.25,-0.50439 z M 265,196 V 156 H 240.5 216 v 40 40 h 24.5 24.5 z m 445,0 V 156 H 501 292 v 40 40 h 209 209 z m 76,0 V 156 H 761.5 737 v 40 40 H 761.5 786 Z M 830.13922,127.08835 832.5,125.17671 V 78 30.823294 l -2.36078,-1.911647 C 827.82556,27.038163 821.25168,27 500.84376,27 H 173.90909 L 171.45455,29.454545 169,31.909091 v 45.910596 c 0,44.932313 0.0442,45.966743 2.07258,48.545453 L 173.14516,129 H 500.4618 c 320.78399,0 327.36375,-0.0382 329.67742,-1.91165 z"
           id="path3" />
        <path
           style="fill:#012446"
           d="m 484,827.41729 c -1.925,-0.22449 -7.775,-0.89635 -13,-1.49302 C 445.63907,823.0282 416.41924,814.3417 392.5,802.58772 316.78918,765.3832 266.5341,695.05959 254.87181,610 c -1.90812,-13.91697 -1.65763,-48.86289 0.44799,-62.5 5.07618,-32.87605 11.60482,-53.75082 25.09369,-80.23491 11.94168,-23.44635 25.84476,-42.43062 45.58651,-62.2471 24.27611,-24.36801 52.24475,-42.80696 84,-55.37887 48.50998,-19.20512 99.69317,-22.41485 152,-9.53201 45.58359,11.22694 90.05232,37.98574 121.96694,73.39289 70.08463,77.75423 84.67847,188.86961 36.84075,280.5 -33.15373,63.50405 -92.46406,110.03807 -161.25076,126.51498 -7.73131,1.85193 -18.78193,4.08478 -24.55693,4.96188 -10.02367,1.52238 -43.6229,2.80076 -51,1.94043 z m 36,-27.47416 C 597.71144,792.84746 666.88941,744.41063 700.58734,673.5 739.55827,591.49338 723.85896,495.48933 660.47323,428.19515 633.43574,399.49049 595.91619,376.92603 558.79105,367.04292 536.89027,361.2127 525.51543,359.71299 503,359.68715 c -11.275,-0.0129 -24.1,0.52359 -28.5,1.19229 -37.80025,5.74477 -66.37144,16.48807 -95.5,35.90978 -33.88875,22.5956 -59.23334,51.75118 -77.1152,88.71078 -8.62654,17.82999 -13.22625,31.26336 -16.94612,49.49084 -9.98359,48.91992 -4.05041,96.59824 17.48521,140.50916 22.64387,46.17063 57.40122,80.88044 103.56889,103.42725 35.71758,17.44332 74.61173,24.61299 114.00722,21.01588 z m -76.89786,-72.83719 c -6.9621,-3.70909 -7.01338,-4.05305 -7.06022,-47.35594 L 436,641 h -42.85212 -42.85211 l -3.39789,-2.26993 c -7.00482,-4.67953 -6.89523,-3.77734 -6.89075,-56.73007 0.002,-28.20523 0.40539,-48.94481 0.99212,-51.05685 0.54345,-1.95626 2.37012,-4.88126 4.05926,-6.5 L 348.12967,521.5 392.06484,521.21976 436,520.93952 l 0.004,-38.71976 c 0.004,-36.87244 0.0985,-38.87525 1.99086,-41.9789 1.09292,-1.79253 3.45373,-4.15334 5.24626,-5.24626 3.14684,-1.91866 5.13696,-1.98712 57.75914,-1.98712 52.62218,0 54.6123,0.0685 57.75914,1.98712 1.79253,1.09292 4.15334,3.45373 5.24626,5.24626 1.89232,3.10365 1.9873,5.10646 1.99086,41.9789 l 0.004,38.71976 43.93516,0.28024 43.93517,0.28024 3.07116,2.94315 c 1.68914,1.61874 3.51581,4.54374 4.05926,6.5 0.58673,2.11204 0.98973,22.85162 0.99212,51.05685 0.004,52.95273 0.11407,52.05054 -6.89075,56.73007 L 651.70423,641 H 608.85212 566 v 38.61385 c 0,37.42828 -0.0648,38.72907 -2.10935,42.36693 -4.04464,7.19645 -2.48523,7.02422 -63.17458,6.9773 -50.35621,-0.0389 -54.45798,-0.17079 -57.61393,-1.85214 z m 94.08495,-65.40186 c 0.34694,-43.56899 0.18766,-42.52285 7.11724,-46.74808 3.03573,-1.851 5.33593,-1.94871 45.95972,-1.95226 L 633.02809,613 632.76405,581.25 632.5,549.5 589.45458,549 c -47.19991,-0.54826 -46.04369,-0.3935 -50.19065,-6.71801 -1.59518,-2.43279 -1.79387,-6.44958 -2.07684,-41.98607 L 536.87418,461 H 501 465.12582 l -0.31291,39.29592 c -0.28297,35.53649 -0.48166,39.55328 -2.07684,41.98607 -4.14696,6.32451 -2.99074,6.16975 -50.19065,6.71801 l -43.04542,0.5 -0.26405,31.75 -0.26404,31.75 42.76404,0.004 c 40.62379,0.004 42.92399,0.10126 45.95972,1.95226 6.92958,4.22523 6.7703,3.17909 7.11724,46.74808 L 465.12582,701 H 501 536.87418 Z M 212.89327,103.56053 c -5.69775,-3.22245 -6.36373,-5.580437 -6.72772,-23.820362 -0.30817,-15.442973 -0.16719,-17.10533 1.79421,-21.157034 3.47647,-7.181441 11.9948,-9.737442 18.74169,-5.623618 5.90385,3.59979 6.45742,6.00916 6.10967,26.592235 L 232.5,97.966453 l -3.18126,3.178797 c -2.62393,2.62191 -4.11304,3.24106 -8.5,3.53418 -3.43392,0.22944 -6.24249,-0.16706 -7.92547,-1.1189 z m 93.29655,-0.58616 c -5.33002,-3.24963 -6.19003,-6.750695 -6.18827,-25.192251 0.002,-18.612717 0.9516,-22.009824 6.99845,-25.030565 6.88458,-3.439231 15.08696,-1.080138 18.24845,5.248446 2.3406,4.685373 2.57267,34.099017 0.31173,39.510222 -2.87894,6.890258 -12.55455,9.619628 -19.37036,5.464148 z m 95.31018,1.0716 c -1.1,-0.45499 -3.125,-2.03653 -4.5,-3.51454 -2.45087,-2.634472 -2.50611,-3.048006 -2.81112,-21.040834 -0.26007,-15.342248 -0.047,-18.86426 1.29855,-21.466294 5.40659,-10.45519 21.17502,-8.558401 24.62672,2.962355 0.63638,2.124049 0.93108,10.037975 0.72768,19.541526 -0.3749,17.517018 -1.1287,20.017437 -6.94067,23.022927 -3.03876,1.57141 -9.20371,1.81741 -12.40116,0.49486 z M 491.88235,101.11765 488,97.235294 V 78.252506 c 0,-17.736132 0.13714,-19.15714 2.0883,-21.637627 5.80398,-7.37857 16.01942,-7.37857 21.8234,0 1.94602,2.473955 2.0883,3.9095 2.0883,21.06964 0,20.341779 -0.62292,23.034881 -5.96727,25.798551 -1.61337,0.83431 -5.0337,1.51693 -7.60072,1.51693 -4.08828,0 -5.14894,-0.48164 -8.54966,-3.88235 z m 96.01092,2.44288 c -5.69775,-3.22245 -6.36373,-5.580437 -6.72772,-23.820362 -0.30817,-15.442973 -0.16719,-17.10533 1.79421,-21.157034 3.47647,-7.181441 11.9948,-9.737442 18.74169,-5.623618 5.90385,3.59979 6.45742,6.00916 6.10967,26.592235 L 607.5,97.966453 l -3.18126,3.178797 c -2.62393,2.62191 -4.11304,3.24106 -8.5,3.53418 -3.43392,0.22944 -6.24249,-0.16706 -7.92547,-1.1189 z m 93.29655,-0.58616 c -5.33002,-3.24963 -6.19003,-6.750695 -6.18827,-25.192251 0.002,-18.612717 0.9516,-22.009824 6.99845,-25.030565 6.88458,-3.439231 15.08696,-1.080138 18.24845,5.248446 2.3406,4.685373 2.57267,34.099017 0.31173,39.510222 -2.87894,6.890258 -12.55455,9.619628 -19.37036,5.464148 z"
           id="path2" />
      </g>
      <path
         d="m 1832.1898,110.97437 c -5.33,-3.24963 -6.19,-6.7507 -6.1882,-25.192251 0,-18.612717 0.9516,-22.009824 6.9984,-25.030565 6.8846,-3.439231 15.087,-1.080138 18.2485,5.248446 2.3406,4.685373 2.5726,34.09902 0.3117,39.51022 -2.879,6.89026 -12.5546,9.61963 -19.3704,5.46415 z"
         style="fill:#012446"
         id="path1" />
    </g>
  </g>
</svg>
