<?xml version="1.0" encoding="UTF-8" standalone="no"?>
<!-- Created with Inkscape (http://www.inkscape.org/) -->

<svg
   version="1.1"
   id="svg1"
   width="1000"
   height="1000"
   viewBox="0 0 1000 1000"
   xmlns="http://www.w3.org/2000/svg"
   xmlns:svg="http://www.w3.org/2000/svg">
  <defs
     id="defs1" />
  <g
     id="g1">
    <g
       id="g2"
       transform="matrix(0.94416933,0,0,0.94416933,52.650313,72.455288)">
      <path
         style="fill:#5f52a5"
         d="m 414,798.37192 c -11.0287,-0.97648 -27.46912,-5.95777 -39.67492,-12.02113 -18.03594,-8.95954 -39.87657,-30.39889 -49.10454,-48.20235 -11.86639,-22.89375 -16.22759,-38.48407 -16.20724,-57.93717 0.0225,-21.51119 3.92298,-38.487 12.79633,-55.69272 11.32915,-21.96758 30.01183,-40.08598 53.95243,-52.32287 20.9295,-10.69781 38.92242,-14.76586 61.23794,-13.84538 31.57186,1.30228 54.77812,11.68123 80.72006,36.10188 23.94731,22.54299 34.38002,45.93612 35.92217,80.54782 1.2962,29.09154 -7.18761,56.88551 -23.58572,77.26953 -9.33704,11.60662 -22.13554,22.36037 -37.2219,31.27517 -18.76529,11.08874 -32.18668,14.59318 -57.33461,14.97055 -9.35,0.14031 -19.025,0.0758 -21.5,-0.14333 z m 39.96134,-43.38848 c 16.34222,-4.61614 33.82214,-16.32233 43.55884,-29.17108 6.16613,-8.13695 13.1208,-22.75856 15.23264,-32.02533 2.41353,-10.5906 2.12681,-28.94083 -0.61386,-39.28703 C 498.6701,603.65415 443.52855,578.1798 396.35829,601.01152 375.36688,611.17194 358.9859,631.30786 352.8443,654.5 c -3.14141,11.86274 -3.16268,31.11618 -0.0464,42 7.63585,26.66874 27.27843,47.87931 52.97904,57.20813 12.97283,4.70888 34.05346,5.26683 48.1844,1.27531 z M 0.66666667,691.33333 C 0.3,690.96667 0,681.51667 0,670.33333 V 650 l 126.75,0.01 126.75,0.01 5.00728,2.33177 c 14.84298,6.91203 17.52583,22.6168 5.60652,32.81928 -8.52075,7.29345 0.65107,6.83987 -138.19713,6.83436 C 57.395833,692.00223 1.0333333,691.7 0.66666667,691.33333 Z M 726,691.07418 c -105.54245,-0.53867 -112.74738,-0.68569 -116.5,-2.37723 -2.2,-0.99167 -5.28918,-3.01667 -6.86484,-4.5 C 599.36866,681.12188 596,674.05785 596,670.28311 c 0,-4.7104 2.39799,-10.61444 5.61971,-13.83616 C 608.41559,649.65108 601.04174,650 737.86425,650 c 133.41058,0 129.92725,0.12892 140.48516,-5.19938 5.19813,-2.62336 12.2795,-9.29325 15.12178,-14.2431 5.38334,-9.37512 5.53012,-11.92426 5.51334,-95.75493 -0.009,-42.51642 -0.46352,-83.88769 -1.01113,-91.93615 -1.50617,-22.13669 -5.24592,-34.50887 -14.06518,-46.53179 -9.79065,-13.34718 -24.46068,-25.31817 -39.89207,-32.5526 -16.24282,-7.61484 -30.2193,-10.27847 -74.89624,-14.27371 C 728.21735,345.85062 705.26872,340.89269 680,330.25445 661.16657,322.3255 638.65968,303.96406 627.2059,287.18427 623.2945,281.45406 607.04292,253.80996 596.23355,234.5 576.11099,198.55285 551.58994,172.25888 526.5,159.72457 513.83292,153.39642 497.26491,149.25035 471.9481,146.07322 466.07855,145.33662 390.72291,145 231.6981,145 H 0 v -21.86457 -21.86458 l 12.25,-0.67508 c 6.7375,-0.37129 110.35,-0.689288 230.25,-0.70666 213.85182,-0.03099 218.18077,0.0063 227.5,1.95848 5.225,1.09454 13.55,2.50491 18.5,3.13416 4.95,0.62926 11.7,1.76984 15,2.53463 3.3,0.76479 7.575,1.68099 9.5,2.03598 15.0516,2.77572 41.46739,13.87243 54.08212,22.71873 32.04337,22.47101 41.30858,33.16903 69.91665,80.72891 20.49525,34.07262 26.72851,42.62349 41.63699,57.11825 23.28747,22.64123 39.11659,30.02257 79.36424,37.00869 6.3721,1.10606 25.44511,3.35329 45.5,5.36093 23.13727,2.31621 35.4978,4.78427 53,10.58265 26.742,8.85948 50.84218,26.1373 63.94052,45.84001 6.02657,9.06525 13.5711,25.83851 16.45778,36.58947 1.18141,4.4 3.47035,12.05 5.08652,17 1.61617,4.95 3.38037,12.15 3.92046,16 2.10792,15.02631 2.65349,60.92039 1.63755,137.75324 -0.50761,38.38921 -0.53489,38.79783 -2.90442,43.5 -1.31559,2.61072 -2.73047,6.32176 -3.14417,8.24676 -1.36689,6.36035 -5.56026,18.4059 -8.52908,24.5 -9.4566,19.41157 -29.00469,32.29951 -55.96516,36.89749 -12.55317,2.14089 -27.50963,2.30696 -151,1.67669 z M 428.5,527.32907 c -4.29895,-2.27967 -14.90227,-10.88733 -31,-25.16547 -23.32281,-20.68653 -28.5,-25.86127 -28.5,-28.48648 0,-1.7336 3.12616,-5.30142 11.63079,-13.27398 6.39694,-5.99673 12.15036,-11.35314 12.78539,-11.90314 0.63502,-0.55 3.83866,-3.47679 7.1192,-6.50398 5.70261,-5.2622 11.65329,-10.3972 21.46462,-18.52238 10.82622,-8.96566 19.04035,-17.42541 19.59054,-20.17634 0.51037,-2.55186 -0.30145,-3.67541 -7.81972,-10.82239 -4.61408,-4.3862 -13.08758,-12.21 -18.83002,-17.38621 C 377.63396,341.46043 369,333.07439 369,330.46705 c 0,-2.14783 7.81775,-10.5614 14.5,-15.60511 3.36596,-2.54059 25.72286,-20.97527 26.5,-21.85093 1.57646,-1.77629 13.1041,-11.12588 16.48213,-13.36797 2.19018,-1.45367 5.14847,-2.64304 6.57398,-2.64304 2.72074,0 9.18213,4.15266 15.62464,10.04178 2.10059,1.92015 6.06925,5.2727 8.81925,7.45011 8.30605,6.57661 36.66681,31.34992 38.5,33.63 0.275,0.34204 2.79168,2.59204 5.59262,5 3.99422,3.43382 25.77912,22.88484 53.60059,47.85823 0.93127,0.83593 5.47597,4.89488 10.09934,9.01988 8.82774,7.87617 12.70745,12.53311 12.70745,15.25317 0,0.89618 -5.2875,6.26531 -11.75,11.93142 -6.4625,5.6661 -14,12.38515 -16.75,14.93122 -2.75,2.54607 -10.175,8.9982 -16.5,14.33806 -31.73489,26.79209 -38.4927,32.63615 -50.99169,44.09687 -12.12231,11.11533 -41.33752,34.94953 -45.70544,37.28717 -2.82024,1.50935 -4.16202,1.42185 -7.80287,-0.50884 z M 241.88448,515.25 C 229.4811,506.90332 201,481.69701 201,479.06648 c 0,-1.85747 7.21685,-9.09522 21,-21.06081 5.225,-4.53599 12.33075,-10.72998 15.79055,-13.76444 3.4598,-3.03445 7.5098,-6.44403 9,-7.57685 2.61214,-1.98569 16.18722,-13.58953 17.20945,-14.71045 0.275,-0.30156 4.55,-4.05986 9.5,-8.3518 4.95,-4.29194 9.37838,-8.46631 9.84085,-9.27638 0.48964,-0.85766 0.34452,-2.67111 -0.34743,-4.34165 C 281.71363,396.89443 260.3449,376.86049 242.5,362.0201 227.92859,349.90205 206.31919,329.88273 205.77777,328 c -0.75536,-2.62673 2.19706,-6.31685 10.57085,-13.21212 31.36461,-25.82667 35.35154,-28.58172 39.26242,-27.13111 4.7622,1.76638 21.70521,15.73221 57.38896,47.30473 11.85647,10.49044 21.1107,18.56391 31.44708,27.43467 11.28944,9.68868 35.05377,31.11264 37.79927,34.07669 5.05008,5.4521 4.7518,5.86609 -18.74635,26.0183 -4.4,3.77347 -10.25,8.9208 -13,11.4385 -4.86742,4.45626 -7.72721,6.93978 -25.58866,22.22193 C 307.94616,470.6669 294.32906,482.57917 284.5,491.50354 262.88165,511.13207 252.91011,519 249.65194,519 c -1.20718,0 -4.70254,-1.6875 -7.76746,-3.75 z M 98.589623,513.85157 c -6.672238,-4.41951 -15.612037,-12.78032 -16.686163,-15.60549 -1.325424,-3.48613 -0.192797,-4.9464 12.325964,-15.89167 13.623156,-11.91084 14.632316,-12.80363 32.161906,-28.45303 7.64023,-6.82076 17.54023,-15.50482 22,-19.29791 19.16958,-16.30398 32.65624,-28.94482 33.20214,-31.11987 0.32284,-1.2863 0.20823,-3.01552 -0.25469,-3.84271 -1.04019,-1.85873 -19.20432,-18.87307 -33.88576,-31.74081 -6.02416,-5.27995 -16.53474,-14.50495 -23.35685,-20.5 -6.82211,-5.99504 -14.24711,-12.43619 -16.5,-14.31365 C 98.176779,325.23673 83,309.17227 83,307.05166 83,302.85699 102.43472,285 107,285 c 0.97899,0 4.64199,2.10677 8.13999,4.68171 5.58858,4.11384 9.55022,7.39615 24.86001,20.59712 15.08585,13.00787 23.88744,20.37125 32.5,27.18939 5.5,4.35408 13.375,10.91466 17.5,14.57908 4.125,3.66441 15.73133,13.43981 25.79184,21.72311 22.79165,18.76544 29.71219,25.11979 30.43576,27.94567 0.45652,1.78294 -0.53641,3.15113 -5.08009,7 -3.10613,2.63116 -8.36473,7.25892 -11.68577,10.28392 -11.62067,10.58479 -19.20258,16.96372 -35.01958,29.46322 -14.70373,11.61974 -32.81381,26.47687 -56.29757,46.18536 C 118.79224,510.88983 109.99828,517 105.97566,517 c -1.44802,0 -4.77174,-1.41679 -7.386037,-3.14843 z"
         id="path2" />
    </g>
  </g>
</svg>
