<?xml version="1.0" encoding="UTF-8" standalone="no"?>
<!-- Created with Inkscape (http://www.inkscape.org/) -->

<svg
   version="1.1"
   id="svg1"
   width="1000"
   height="1000"
   viewBox="0 0 1000 1000"
   xmlns="http://www.w3.org/2000/svg"
   xmlns:svg="http://www.w3.org/2000/svg">
  <defs
     id="defs1" />
  <g
     id="g1">
    <g
       id="g2"
       transform="translate(12.000001,4)">
      <path
         style="fill:#a5dbe0"
         d="m 295.80162,969.36061 c 0.64825,-0.27039 1.42277,-0.23714 1.72117,0.0739 0.2984,0.31103 -0.23198,0.53225 -1.17862,0.49161 -1.04612,-0.0449 -1.25891,-0.26671 -0.54255,-0.5655 z m 291.85,0 c 0.64825,-0.27039 1.42277,-0.23714 1.72117,0.0739 0.2984,0.31103 -0.23198,0.53225 -1.17862,0.49161 -1.04612,-0.0449 -1.25891,-0.26671 -0.54255,-0.5655 z M 240.17946,932.794 c -1.117,-1.48455 -1.08524,-1.51765 0.33904,-0.35339 0.86432,0.70653 1.5715,1.44363 1.5715,1.638 0,0.77036 -0.73742,0.27453 -1.91054,-1.28461 z M 644.394,932.20661 c 0,-0.19437 0.70717,-0.93147 1.5715,-1.638 1.42428,-1.16426 1.45604,-1.13116 0.33904,0.35339 -1.17312,1.55914 -1.91054,2.05497 -1.91054,1.28461 z M 230.80851,923.902 228.171,920.86 l 2.9185,2.74912 c 1.60517,1.51201 2.9185,2.88091 2.9185,3.042 0,0.72311 -0.74097,0.0865 -3.19949,-2.74912 z M 656.068,921.03512 c 0,-0.16109 1.31332,-1.52999 2.9185,-3.042 l 2.9185,-2.74912 -2.63751,3.042 c -2.45852,2.83557 -3.19949,3.47223 -3.19949,2.74912 z M 668.64,907.756 c 1.67547,-1.8018 3.24837,-3.276 3.49532,-3.276 0.24695,0 -0.92185,1.4742 -2.59732,3.276 -1.67547,1.8018 -3.24837,3.276 -3.49532,3.276 -0.24695,0 0.92185,-1.4742 2.59732,-3.276 z m -458.02834,-4.914 -3.09466,-3.51 3.3675,3.22561 c 1.85212,1.77409 3.3675,3.35359 3.3675,3.51 0,0.71475 -0.7599,0.0414 -3.64034,-3.22561 z m -9.0462,-10.296 c -1.117,-1.48455 -1.08524,-1.51765 0.33904,-0.35339 0.86433,0.70653 1.5715,1.44363 1.5715,1.638 0,0.77036 -0.73742,0.27453 -1.91054,-1.28461 z m 368.43633,-179.01 c 0,-1.287 0.20382,-1.8135 0.45294,-1.17 0.24911,0.6435 0.24911,1.6965 0,2.34 -0.24912,0.6435 -0.45294,0.117 -0.45294,-1.17 z M 740.48,712.6 l -22.899,-0.51652 22.6215,-0.20974 c 14.33351,-0.1329 22.82484,0.13319 23.1765,0.72626 0.30525,0.5148 0.43012,0.84162 0.2775,0.72626 -0.15263,-0.11535 -10.58205,-0.44217 -23.1765,-0.72626 z m -426.40821,-2.808 c 0,-1.287 0.20382,-1.8135 0.45294,-1.17 0.24911,0.6435 0.24911,1.6965 0,2.34 -0.24912,0.6435 -0.45294,0.117 -0.45294,-1.17 z M 119.13489,698.95 c 0.0431,-1.09039 0.25588,-1.31218 0.54255,-0.5655 0.2594,0.67567 0.2275,1.48298 -0.0709,1.794 -0.2984,0.31103 -0.51064,-0.2418 -0.47165,-1.2285 z m -0.898,-7.488 c 0.0431,-1.09039 0.25588,-1.31218 0.54255,-0.5655 0.2594,0.67568 0.2275,1.48298 -0.0709,1.794 -0.2984,0.31103 -0.51064,-0.2418 -0.47165,-1.2285 z m 679.89583,-21.62876 c -0.0994,-10.90912 0.12236,-20.03095 0.49278,-20.27073 0.37043,-0.23979 0.56881,5.52686 0.44086,12.81476 -0.43536,24.79639 -0.75257,27.32965 -0.93364,7.45597 z m -58.5524,-0.94625 c -0.24603,-10.91475 -0.13565,-19.51933 0.24528,-19.12128 0.38094,0.39804 0.58223,9.3283 0.44732,19.845 L 740.02763,688.732 Z M 117.33889,682.102 c 0.0431,-1.09039 0.25588,-1.31218 0.54255,-0.5655 0.2594,0.67567 0.2275,1.48298 -0.0709,1.794 -0.2984,0.31102 -0.51064,-0.2418 -0.47165,-1.2285 z m 497.88446,-39.68704 -30.50775,-31.80904 15.4712,-16.22159 c 8.50916,-8.92188 15.4712,-15.98823 15.4712,-15.703 0,0.28523 -6.76533,7.57938 -15.03407,16.20922 l -15.03407,15.69062 30.51962,31.82141 c 16.78579,17.50178 30.31757,31.82142 30.07062,31.82142 -0.24695,0 -14.17749,-14.31407 -30.95675,-31.80904 z M 116.51179,669.544 c 0,-1.287 0.20382,-1.8135 0.45294,-1.17 0.24911,0.6435 0.24911,1.6965 0,2.34 -0.24912,0.6435 -0.45294,0.117 -0.45294,-1.17 z m 784.25439,-37.20396 20.64227,-21.75996 -13.45695,-14.27604 -13.45694,-14.27604 13.91217,14.27466 13.91218,14.27466 -21.0975,21.76134 L 880.12391,654.1 Z M 115.79573,638.656 c 0,-4.8906 0.15135,-6.8913 0.33634,-4.446 0.18498,2.4453 0.18498,6.4467 0,8.892 -0.18499,2.4453 -0.33634,0.4446 -0.33634,-4.446 z m 0.74933,-27.612 c 0.0183,-1.5444 0.21956,-2.06288 0.44725,-1.15219 0.22768,0.9107 0.2127,2.1743 -0.0333,2.808 -0.24598,0.63371 -0.43227,-0.11141 -0.41397,-1.65581 z M 630.475,595.6 c 6.90137,-7.2072 12.74999,-13.104 12.99694,-13.104 0.24695,0 -5.19757,5.8968 -12.09894,13.104 -6.90137,7.2072 -12.74999,13.104 -12.99694,13.104 -0.24695,0 5.19757,-5.8968 12.09894,-13.104 z m -513.06521,1.872 c 0,-1.287 0.20382,-1.8135 0.45294,-1.17 0.24911,0.6435 0.24911,1.6965 0,2.34 -0.24912,0.6435 -0.45294,0.117 -0.45294,-1.17 z m 338.23583,-8.12739 c 0.64825,-0.27039 1.42277,-0.23713 1.72117,0.0739 0.2984,0.31102 -0.23198,0.53225 -1.17862,0.49161 -1.04612,-0.0449 -1.25891,-0.26671 -0.54255,-0.5655 z M 118.23689,587.566 c 0.0431,-1.09039 0.25588,-1.31218 0.54255,-0.5655 0.2594,0.67567 0.2275,1.48297 -0.0709,1.794 -0.2984,0.31103 -0.51064,-0.2418 -0.47165,-1.2285 z M 828.484,569.03861 c 0,-0.19437 0.70718,-0.93147 1.5715,-1.638 1.42428,-1.16426 1.45604,-1.13116 0.33904,0.35339 -1.17312,1.55914 -1.91054,2.05497 -1.91054,1.28461 z M 570.585,547.16438 c 6.0786,-0.16217 15.777,-0.16167 21.552,10e-4 5.775,0.16278 0.8016,0.29547 -11.052,0.29486 -11.8536,-6.2e-4 -16.5786,-0.1338 -10.5,-0.29597 z M 124.73026,533.356 c 0.005,-3.0888 0.17269,-4.23956 0.37255,-2.55724 0.19986,1.68232 0.19573,4.20952 -0.009,5.616 -0.2049,1.40648 -0.36842,0.03 -0.36338,-3.05876 z m 737.12153,-34.164 c 0,-1.287 0.20382,-1.8135 0.45294,-1.17 0.24911,0.6435 0.24911,1.6965 0,2.34 -0.24912,0.6435 -0.45294,0.117 -0.45294,-1.17 z M 676.08084,494.98 c 0.007,-2.574 0.18114,-3.51591 0.38755,-2.09313 0.20641,1.42278 0.20089,3.52878 -0.0123,4.68 -0.21315,1.15122 -0.38203,-0.0129 -0.37529,-2.58687 z m 185.77095,-3.276 c 0,-1.287 0.20382,-1.8135 0.45294,-1.17 0.24911,0.6435 0.24911,1.6965 0,2.34 -0.24912,0.6435 -0.45294,0.117 -0.45294,-1.17 z m -185.9569,-4.29 c 0.0431,-1.09039 0.25588,-1.31218 0.54255,-0.5655 0.2594,0.67568 0.2275,1.48298 -0.0709,1.794 -0.2984,0.31103 -0.51064,-0.2418 -0.47165,-1.2285 z m 87.2767,-89.95864 c 0.87373,-0.23732 2.08603,-0.22171 2.694,0.0347 0.60798,0.2564 -0.10689,0.45056 -1.58859,0.43149 -1.4817,-0.0191 -1.97913,-0.22885 -1.10541,-0.46617 z m 9.878,0 c 0.87373,-0.23732 2.08603,-0.22171 2.694,0.0347 0.60798,0.2564 -0.10689,0.45056 -1.58859,0.43149 -1.4817,-0.0191 -1.97913,-0.22885 -1.10541,-0.46617 z M 670.42438,348.73 657.415,334.924 l 13.2455,13.55989 c 12.30471,12.59677 13.65205,14.05211 13.00938,14.05211 -0.12986,0 -6.09033,-6.2127 -13.2455,-13.806 z m 196.67362,0.234 c 7.14877,-7.4646 13.19982,-13.572 13.44677,-13.572 0.24695,0 -5.4,6.1074 -12.54877,13.572 -7.14877,7.4646 -13.19982,13.572 -13.44677,13.572 -0.24695,0 5.4,-6.1074 12.54877,-13.572 z m -127.44511,-11.31 c 0.0431,-1.09039 0.25588,-1.31218 0.54255,-0.5655 0.2594,0.67568 0.2275,1.48298 -0.0709,1.794 -0.2984,0.31102 -0.51064,-0.2418 -0.47165,-1.2285 z m 58.50395,-17.94 -0.20484,-19.89 h -28.71661 -28.71661 l -0.27376,17.78471 -0.27376,17.78471 0.0299,-18.01871 0.0299,-18.01871 28.9839,-0.247 c 23.01975,-0.19617 29.07543,0.002 29.42873,0.96127 0.24466,0.66455 0.3263,9.8315 0.18144,20.371 l -0.2634,19.16273 z m -125.93505,-1.872 -14.80679,-15.678 15.0415,15.43336 c 8.27283,8.48835 15.0415,15.54345 15.0415,15.678 0,0.66787 -1.52009,-0.86785 -15.27621,-15.43336 z m -612.354895,13.26 c 0.04309,-1.09039 0.255876,-1.31218 0.542541,-0.5655 0.259406,0.67567 0.227504,1.48298 -0.07089,1.794 -0.298398,0.31102 -0.510639,-0.2418 -0.471647,-1.2285 z m -0.827106,-9.75 c 0,-1.287 0.203823,-1.8135 0.452939,-1.17 0.249116,0.6435 0.249116,1.6965 0,2.34 -0.249116,0.6435 -0.452939,0.117 -0.452939,-1.17 z M 58.226461,307.78 c 0.01,-2.0592 0.193864,-2.79139 0.408659,-1.62709 0.214796,1.16431 0.206641,2.84911 -0.01812,3.744 -0.224763,0.8949 -0.400505,-0.0577 -0.390537,-2.11691 z m 767.738599,0.936 c 0.0183,-1.5444 0.21956,-2.06288 0.44725,-1.15219 0.22768,0.9107 0.2127,2.1743 -0.0333,2.808 -0.24598,0.63371 -0.43227,-0.11141 -0.41397,-1.65581 z m 0,-45.864 c 0.0183,-1.5444 0.21956,-2.06288 0.44725,-1.15219 0.22768,0.9107 0.2127,2.1743 -0.0333,2.808 -0.24598,0.63371 -0.43227,-0.11141 -0.41397,-1.65581 z M 58.175064,261.916 c 0.0183,-1.5444 0.21956,-2.06288 0.447242,-1.15219 0.227682,0.9107 0.212708,2.1743 -0.03328,2.808 -0.245983,0.63371 -0.432268,-0.11141 -0.413967,-1.65581 z M 825.03379,248.344 c 0,-1.287 0.20382,-1.8135 0.45294,-1.17 0.24911,0.6435 0.24911,1.6965 0,2.34 -0.24912,0.6435 -0.45294,0.117 -0.45294,-1.17 z M 58.968895,247.798 c 0.04309,-1.09039 0.255876,-1.31218 0.542541,-0.5655 0.259406,0.67568 0.227504,1.48297 -0.07089,1.794 -0.298398,0.31103 -0.510639,-0.2418 -0.471647,-1.2285 z m 765.166895,-9.75 c 0,-1.287 0.20382,-1.8135 0.45294,-1.17 0.24911,0.6435 0.24911,1.6965 0,2.34 -0.24912,0.6435 -0.45294,0.117 -0.45294,-1.17 z M 59.866895,237.502 c 0.04309,-1.09039 0.255876,-1.31218 0.542541,-0.5655 0.259406,0.67568 0.227504,1.48297 -0.07089,1.794 -0.298398,0.31103 -0.510639,-0.2418 -0.471647,-1.2285 z m 763.299995,-7.488 c 0.0431,-1.09039 0.25588,-1.31218 0.54255,-0.5655 0.2594,0.67567 0.2275,1.48297 -0.0709,1.794 -0.2984,0.31103 -0.51064,-0.2418 -0.47165,-1.2285 z m -0.898,-7.488 c 0.0431,-1.09039 0.25588,-1.31218 0.54255,-0.5655 0.2594,0.67567 0.2275,1.48297 -0.0709,1.794 -0.2984,0.31103 -0.51064,-0.2418 -0.47165,-1.2285 z m -400.3373,-33.79864 c 0.87373,-0.23732 2.08603,-0.22171 2.694,0.0347 0.60798,0.2564 -0.10689,0.45056 -1.58859,0.43149 -1.4817,-0.0191 -1.97913,-0.22885 -1.10541,-0.46617 z m 39.04591,0.0288 c 0.61737,-0.25966 1.62762,-0.25966 2.245,0 0.61737,0.25965 0.11225,0.4721 -1.1225,0.4721 -1.23475,0 -1.73988,-0.21245 -1.1225,-0.4721 z m 11.73012,-0.9555 c 0.64825,-0.27039 1.42277,-0.23714 1.72117,0.0739 0.2984,0.31102 -0.23198,0.53225 -1.17862,0.49161 -1.04612,-0.0449 -1.25891,-0.26671 -0.54255,-0.5655 z m 15.26601,-1.872 c 0.64824,-0.27039 1.42276,-0.23714 1.72116,0.0739 0.2984,0.31103 -0.23198,0.53225 -1.17862,0.49161 -1.04612,-0.0449 -1.25891,-0.26671 -0.54254,-0.5655 z M 431.36724,166.2255 c 2.11213,-0.19773 5.34493,-0.19495 7.184,0.006 1.83907,0.20112 0.11096,0.3629 -3.84024,0.3595 -3.9512,-0.003 -5.45589,-0.16796 -3.34376,-0.36568 z m 21.97726,0.0413 c 0.86432,-0.23543 2.27867,-0.23543 3.143,0 0.86432,0.23543 0.15715,0.42806 -1.5715,0.42806 -1.72865,0 -2.43582,-0.19263 -1.5715,-0.42806 z m -38.165,-0.91068 c 0.61737,-0.25966 1.62762,-0.25966 2.245,0 0.61737,0.25965 0.11225,0.4721 -1.1225,0.4721 -1.23475,0 -1.73988,-0.21245 -1.1225,-0.4721 z m 52.14013,-0.0195 c 0.64824,-0.27039 1.42276,-0.23714 1.72116,0.0739 0.2984,0.31103 -0.23198,0.53225 -1.17862,0.49161 -1.04612,-0.0449 -1.25891,-0.26671 -0.54254,-0.5655 z m 8.97999,-0.936 c 0.64825,-0.27039 1.42277,-0.23714 1.72117,0.0739 0.2984,0.31102 -0.23198,0.53225 -1.17862,0.49161 -1.04612,-0.0449 -1.25891,-0.26671 -0.54255,-0.5655 z m -54.83412,-58.9485 c 0.61737,-0.25966 1.62762,-0.25966 2.245,0 0.61737,0.25965 0.11225,0.4721 -1.1225,0.4721 -1.23475,0 -1.73988,-0.21245 -1.1225,-0.4721 z m 39.512,0 c 0.61737,-0.25966 1.62762,-0.25966 2.245,0 0.61737,0.25965 0.11225,0.4721 -1.1225,0.4721 -1.23475,0 -1.73988,-0.21245 -1.1225,-0.4721 z m -48.43588,-0.9555 c 0.64825,-0.27039 1.42277,-0.23713 1.72117,0.0739 0.2984,0.31103 -0.23198,0.53225 -1.17862,0.49161 -1.04612,-0.0449 -1.25891,-0.26671 -0.54255,-0.5655 z m 58.37001,0 c 0.64824,-0.27039 1.42276,-0.23713 1.72116,0.0739 0.2984,0.31103 -0.23198,0.53225 -1.17862,0.49161 -1.04612,-0.0449 -1.25891,-0.26671 -0.54254,-0.5655 z M 115.472,80.446608 c 0,-0.194365 0.70717,-0.931465 1.5715,-1.638 1.42428,-1.164263 1.45604,-1.131156 0.33904,0.353392 -1.17312,1.55914 -1.91054,2.054968 -1.91054,1.284608 z m 13.47,-14.04 c 0,-0.194365 0.70718,-0.931465 1.5715,-1.638 1.42428,-1.164263 1.45604,-1.131156 0.33904,0.353392 -1.17312,1.55914 -1.91054,2.054968 -1.91054,1.284608 z m 63.58962,-31.174003 c 0.64825,-0.270383 1.42277,-0.23713 1.72117,0.0739 0.2984,0.311025 -0.23198,0.532247 -1.17862,0.491605 -1.04612,-0.04491 -1.25891,-0.266704 -0.54255,-0.5655 z m 35.92,0 c 0.64825,-0.270383 1.42277,-0.23713 1.72117,0.0739 0.2984,0.311025 -0.23198,0.532247 -1.17862,0.491605 -1.04612,-0.04491 -1.25891,-0.266704 -0.54255,-0.5655 z m 426.55,0 c 0.64825,-0.270383 1.42277,-0.23713 1.72117,0.0739 0.2984,0.311025 -0.23198,0.532247 -1.17862,0.491605 -1.04612,-0.04491 -1.25891,-0.266704 -0.54255,-0.5655 z m 35.92001,0 c 0.64824,-0.270383 1.42276,-0.23713 1.72116,0.0739 0.2984,0.311025 -0.23198,0.532247 -1.17862,0.491605 -1.04612,-0.04491 -1.25891,-0.266704 -0.54254,-0.5655 z M 202.8025,34.265586 c 1.35822,-0.214461 3.58078,-0.214461 4.939,0 1.35822,0.214461 0.24695,0.389928 -2.4695,0.389928 -2.71645,0 -3.82773,-0.175467 -2.4695,-0.389928 z m 10.776,0 c 1.35822,-0.214461 3.58077,-0.214461 4.939,0 1.35822,0.214461 0.24695,0.389928 -2.4695,0.389928 -2.71645,0 -3.82772,-0.175467 -2.4695,-0.389928 z m 452.592,0 c 1.35822,-0.214461 3.58077,-0.214461 4.939,0 1.35823,0.214461 0.24695,0.389928 -2.4695,0.389928 -2.71645,0 -3.82773,-0.175467 -2.4695,-0.389928 z m 10.776,0 c 1.35823,-0.214461 3.58077,-0.214461 4.939,0 1.35823,0.214461 0.24695,0.389928 -2.4695,0.389928 -2.71645,0 -3.82773,-0.175467 -2.4695,-0.389928 z"
         id="path8" />
      <path
         style="fill:#66c8cf"
         d="m 291.72159,969.35136 c 0.87373,-0.23732 2.08603,-0.22171 2.694,0.0347 0.60798,0.2564 -0.10689,0.45056 -1.58859,0.43149 -1.4817,-0.0191 -1.97913,-0.22885 -1.10541,-0.46617 z m 299.034,0 c 0.87373,-0.23732 2.08603,-0.22171 2.694,0.0347 0.60798,0.2564 -0.10689,0.45056 -1.58859,0.43149 -1.4817,-0.0191 -1.97913,-0.22885 -1.10541,-0.46617 z M 226.28968,919.222 l -1.71068,-2.106 2.0205,1.78307 c 1.89877,1.67564 2.42931,2.42893 1.71068,2.42893 -0.1704,0 -1.07963,-0.9477 -2.0205,-2.106 z m -7.57836,-7.956 -4.90832,-5.382 5.1635,5.11603 c 4.79706,4.75295 5.57487,5.64797 4.90832,5.64797 -0.14034,0 -2.46392,-2.4219 -5.1635,-5.382 z m 444.54068,2.106 c 1.15999,-1.287 2.31112,-2.34 2.55807,-2.34 0.24695,0 -0.50008,1.053 -1.66007,2.34 -1.15999,1.287 -2.31112,2.34 -2.55807,2.34 -0.24695,0 0.50008,-1.053 1.66007,-2.34 z M 117.33889,679.294 c 0.0431,-1.09039 0.25588,-1.31218 0.54255,-0.5655 0.2594,0.67567 0.2275,1.48298 -0.0709,1.794 -0.2984,0.31102 -0.51064,-0.2418 -0.47165,-1.2285 z m -0.79383,-13.962 c 0.0183,-1.5444 0.21956,-2.06288 0.44725,-1.15219 0.22768,0.9107 0.2127,2.1743 -0.0333,2.808 -0.24598,0.63371 -0.43227,-0.11141 -0.41397,-1.65581 z M 636.3307,631.65551 c -16.7234,-17.444 -19.96142,-21.24382 -18.94327,-22.23 0.99971,-0.96834 1.09856,-0.95231 0.53164,0.0862 -0.4886,0.89501 5.2984,7.52883 19.39227,22.23 11.04878,11.52486 19.88664,20.95429 19.63969,20.95429 -0.24695,0 -9.5261,-9.46822 -20.62033,-21.04049 z M 348.503,630.232 c 0.89395,-1.0296 1.82741,-1.872 2.07436,-1.872 0.24695,0 -0.28241,0.8424 -1.17636,1.872 -0.89395,1.0296 -1.82741,1.872 -2.07436,1.872 -0.24695,0 0.28241,-0.8424 1.17636,-1.872 z m 5.388,-5.616 c 0.89395,-1.0296 1.82741,-1.872 2.07436,-1.872 0.24695,0 -0.28241,0.8424 -1.17636,1.872 -0.89395,1.0296 -1.82741,1.872 -2.07436,1.872 -0.24695,0 0.28241,-0.8424 1.17636,-1.872 z m -237.37921,-9.36 c 0,-1.287 0.20382,-1.8135 0.45294,-1.17 0.24911,0.6435 0.24911,1.6965 0,2.34 -0.24912,0.6435 -0.45294,0.117 -0.45294,-1.17 z m 0.8271,-14.586 c 0.0431,-1.09039 0.25588,-1.31218 0.54255,-0.5655 0.2594,0.67567 0.2275,1.48298 -0.0709,1.794 -0.2984,0.31103 -0.51064,-0.2418 -0.47165,-1.2285 z m 322.96458,-12.29754 c 1.59416,-0.20677 4.42286,-0.21017 6.286,-0.008 1.86314,0.20262 0.55883,0.3718 -2.89847,0.37595 -3.4573,0.004 -4.98169,-0.16163 -3.38753,-0.3684 z M 644.38152,315.502 c 11.2499,-11.9554 12.58448,-13.29407 12.58448,-12.623 0,0.13586 -5.55638,5.92736 -12.3475,12.87 l -12.3475,12.623 z m 180.58137,3.432 c 0.0431,-1.09039 0.25588,-1.31218 0.54255,-0.5655 0.2594,0.67568 0.2275,1.48298 -0.0709,1.794 -0.2984,0.31102 -0.51064,-0.2418 -0.47165,-1.2285 z m 1.00217,-14.898 c 0.0183,-1.5444 0.21956,-2.06288 0.44725,-1.15219 0.22768,0.9107 0.2127,2.1743 -0.0333,2.808 -0.24598,0.63371 -0.43227,-0.11141 -0.41397,-1.65581 z M 58.141789,302.632 c 0,-1.287 0.203823,-1.8135 0.452939,-1.17 0.249116,0.6435 0.249116,1.6965 0,2.34 -0.249116,0.6435 -0.452939,0.117 -0.452939,-1.17 z M 825.93179,267.064 c 0,-1.287 0.20382,-1.8135 0.45294,-1.17 0.24911,0.6435 0.24911,1.6965 0,2.34 -0.24912,0.6435 -0.45294,0.117 -0.45294,-1.17 z M 58.141789,266.128 c 0,-1.287 0.203823,-1.8135 0.452939,-1.17 0.249116,0.6435 0.249116,1.6965 0,2.34 -0.249116,0.6435 -0.452939,0.117 -0.452939,-1.17 z M 439.8745,189.63015 c 1.85213,-0.20193 4.88288,-0.20193 6.735,0 1.85213,0.20194 0.33675,0.36716 -3.3675,0.36716 -3.70425,0 -5.21963,-0.16522 -3.3675,-0.36716 z m -21.04688,-0.89354 c 0.64825,-0.27039 1.42277,-0.23714 1.72117,0.0739 0.2984,0.31103 -0.23198,0.53225 -1.17862,0.49161 -1.04612,-0.0449 -1.25891,-0.26671 -0.54255,-0.5655 z m 45.79801,0 c 0.64824,-0.27039 1.42276,-0.23714 1.72116,0.0739 0.2984,0.31103 -0.23198,0.53225 -1.17862,0.49161 -1.04612,-0.0449 -1.25891,-0.26671 -0.54254,-0.5655 z M 443.9155,166.2349 c 1.60518,-0.20763 4.23182,-0.20763 5.837,0 1.60518,0.20763 0.29185,0.37751 -2.9185,0.37751 -3.21035,0 -4.52368,-0.16988 -2.9185,-0.37751 z m -25.08788,-0.89829 c 0.64825,-0.27039 1.42277,-0.23714 1.72117,0.0739 0.2984,0.31103 -0.23198,0.53225 -1.17862,0.49161 -1.04612,-0.0449 -1.25891,-0.26671 -0.54255,-0.5655 z M 320.35779,156.616 c 0,-1.287 0.20382,-1.8135 0.45294,-1.17 0.24911,0.6435 0.24911,1.6965 0,2.34 -0.24912,0.6435 -0.45294,0.117 -0.45294,-1.17 z m 11.36384,-11.87139 c 0.64824,-0.27039 1.42276,-0.23714 1.72116,0.0739 0.2984,0.31102 -0.23198,0.53225 -1.17862,0.49161 -1.04612,-0.0449 -1.25891,-0.26671 -0.54254,-0.5655 z m 220.00999,0 c 0.64825,-0.27039 1.42277,-0.23714 1.72117,0.0739 0.2984,0.31102 -0.23198,0.53225 -1.17862,0.49161 -1.04612,-0.0449 -1.25891,-0.26671 -0.54255,-0.5655 z M 435.34521,106.31484 c 3.31222,-0.17958 8.96962,-0.18077 12.572,-0.003 3.60239,0.17812 0.89239,0.32504 -6.02221,0.3265 -6.9146,0.001 -9.862,-0.14427 -6.54979,-0.32385 z"
         id="path7" />
      <path
         style="fill:#3cb9c2"
         d="m 570.89979,949.408 c 0,-1.287 0.20382,-1.8135 0.45294,-1.17 0.24911,0.6435 0.24911,1.6965 0,2.34 -0.24912,0.6435 -0.45294,0.117 -0.45294,-1.17 z M 235.68946,928.114 c -1.117,-1.48455 -1.08524,-1.51765 0.33904,-0.35339 1.49584,1.22276 1.97154,1.99139 1.23246,1.99139 -0.18648,0 -0.89365,-0.7371 -1.5715,-1.638 z M 649.782,926.476 c 1.15999,-1.287 2.31112,-2.34 2.55807,-2.34 0.24695,0 -0.50008,1.053 -1.66007,2.34 -1.15999,1.287 -2.31112,2.34 -2.55807,2.34 -0.24695,0 0.50008,-1.053 1.66007,-2.34 z M 675.375,899.8 c 0.89395,-1.0296 1.82741,-1.872 2.07436,-1.872 0.24695,0 -0.28241,0.8424 -1.17636,1.872 -0.89395,1.0296 -1.82741,1.872 -2.07436,1.872 -0.24695,0 0.28241,-0.8424 1.17636,-1.872 z m -469.31954,-2.574 c -1.117,-1.48455 -1.08524,-1.51765 0.33904,-0.35339 0.86432,0.70653 1.5715,1.44363 1.5715,1.638 0,0.77036 -0.73742,0.27453 -1.91054,-1.28461 z m 511.46487,-207.09 c 0,-12.6126 0.12712,-17.7723 0.28248,-11.466 0.15536,6.3063 0.15536,16.6257 0,22.932 -0.15536,6.3063 -0.28248,1.1466 -0.28248,-11.466 z M 672.232,670.948 c 8.13812,-8.4942 14.99864,-15.444 15.24559,-15.444 0.24695,0 -6.20947,6.9498 -14.34759,15.444 -8.13812,8.4942 -14.99864,15.444 -15.24559,15.444 -0.24695,0 6.20947,-6.9498 14.34759,-15.444 z m -554.89311,5.538 c 0.0431,-1.09039 0.25588,-1.31218 0.54255,-0.5655 0.2594,0.67568 0.2275,1.48298 -0.0709,1.794 -0.2984,0.31103 -0.51064,-0.2418 -0.47165,-1.2285 z m -0.79383,-15.834 c 0.0183,-1.5444 0.21956,-2.06288 0.44725,-1.15219 0.22768,0.9107 0.2127,2.1743 -0.0333,2.808 -0.24598,0.63371 -0.43227,-0.11141 -0.41397,-1.65581 z m 418.1784,-31.122 c -1.117,-1.48455 -1.08524,-1.51765 0.33904,-0.35339 1.49584,1.22276 1.97154,1.99139 1.23246,1.99139 -0.18648,0 -0.89365,-0.7371 -1.5715,-1.638 z m -4.44343,-4.68 -2.17703,-2.574 2.4695,2.26916 c 2.30812,2.12087 2.88131,2.87884 2.17703,2.87884 -0.16085,0 -1.27213,-1.1583 -2.4695,-2.574 z M 116.51179,619 c 0,-1.287 0.20382,-1.8135 0.45294,-1.17 0.24911,0.6435 0.24911,1.6965 0,2.34 -0.24912,0.6435 -0.45294,0.117 -0.45294,-1.17 z M 434.9355,588.42811 c 0.61738,-0.25966 1.62763,-0.25966 2.245,0 0.61738,0.25965 0.11225,0.4721 -1.1225,0.4721 -1.23475,0 -1.73988,-0.21245 -1.1225,-0.4721 z M 570.585,440.46038 c 6.0786,-0.16217 15.777,-0.16167 21.552,0.001 5.775,0.16278 0.8016,0.29547 -11.052,0.29486 -11.8536,-6.2e-4 -16.5786,-0.1338 -10.5,-0.29597 z M 599.48379,393.658 584.677,377.98 l 15.0415,15.43336 c 8.27282,8.48835 15.0415,15.54345 15.0415,15.678 0,0.66787 -1.52009,-0.86785 -15.27621,-15.43336 z m 7.64321,-39.546 c 12.34009,-12.87 22.63858,-23.4 22.88553,-23.4 0.24695,0 -9.64744,10.53 -21.98753,23.4 -12.34009,12.87 -22.63858,23.4 -22.88553,23.4 -0.24695,0 9.64744,-10.53 21.98753,-23.4 z M 717.55609,298.18649 717.581,275.956 h 51.635 51.635 l 0.0254,22.464 0.0254,22.464 -0.2662,-22.23 -0.26619,-22.23 H 769.216 718.06251 l -0.26567,21.99649 -0.26566,21.99649 z M 58.968895,316.126 c 0.04309,-1.09039 0.255876,-1.31218 0.542541,-0.5655 0.259406,0.67567 0.227504,1.48298 -0.07089,1.794 -0.298398,0.31102 -0.510639,-0.2418 -0.471647,-1.2285 z M 825.99834,298.888 c 0,-1.8018 0.1848,-2.5389 0.41067,-1.638 0.22588,0.9009 0.22588,2.3751 0,3.276 -0.22587,0.9009 -0.41067,0.1638 -0.41067,-1.638 z m -767.741499,-2.34 c 0.0067,-2.574 0.181138,-3.51591 0.387547,-2.09313 0.206409,1.42278 0.200893,3.52878 -0.01226,4.68 -0.213151,1.15122 -0.382031,-0.0129 -0.375289,-2.58687 z M 826.0591,273.616 c 0,-2.8314 0.16834,-3.9897 0.3741,-2.574 0.20575,1.4157 0.20575,3.7323 0,5.148 -0.20576,1.4157 -0.3741,0.2574 -0.3741,-2.574 z M 58.269098,272.68 c 0,-2.8314 0.168345,-3.9897 0.374098,-2.574 0.205754,1.4157 0.205754,3.7323 0,5.148 -0.205753,1.4157 -0.374098,0.2574 -0.374098,-2.574 z M 824.96289,253.414 c 0.0431,-1.09039 0.25588,-1.31218 0.54255,-0.5655 0.2594,0.67568 0.2275,1.48297 -0.0709,1.794 -0.2984,0.31103 -0.51064,-0.2418 -0.47165,-1.2285 z M 58.968895,252.478 c 0.04309,-1.09039 0.255876,-1.31218 0.542541,-0.5655 0.259406,0.67568 0.227504,1.48297 -0.07089,1.794 -0.298398,0.31103 -0.510639,-0.2418 -0.471647,-1.2285 z m 0.898,-10.296 c 0.04309,-1.09039 0.255876,-1.31218 0.542541,-0.5655 0.259406,0.67568 0.227504,1.48297 -0.07089,1.794 -0.298398,0.31103 -0.510639,-0.2418 -0.471647,-1.2285 z M 432.6905,189.66679 c 0.86432,-0.23543 2.27867,-0.23543 3.143,0 0.86432,0.23543 0.15715,0.42806 -1.5715,0.42806 -1.72865,0 -2.43582,-0.19263 -1.5715,-0.42806 z m 17.97709,-0.003 c 0.87373,-0.23732 2.08603,-0.22171 2.694,0.0347 0.60798,0.2564 -0.10689,0.45056 -1.58859,0.43149 -1.4817,-0.0191 -1.97913,-0.22885 -1.10541,-0.46617 z m -34.53397,-0.92675 c 0.64825,-0.27039 1.42277,-0.23714 1.72117,0.0739 0.2984,0.31103 -0.23198,0.53225 -1.17862,0.49161 -1.04612,-0.0449 -1.25891,-0.26671 -0.54255,-0.5655 z m 51.18601,0 c 0.64824,-0.27039 1.42276,-0.23714 1.72116,0.0739 0.2984,0.31103 -0.23198,0.53225 -1.17862,0.49161 -1.04612,-0.0449 -1.25891,-0.26671 -0.54254,-0.5655 z m -45.798,-23.4 c 0.64824,-0.27039 1.42276,-0.23714 1.72116,0.0739 0.2984,0.31103 -0.23198,0.53225 -1.17862,0.49161 -1.04612,-0.0449 -1.25891,-0.26671 -0.54254,-0.5655 z m 6.286,-58.968 c 0.64824,-0.27039 1.42276,-0.23713 1.72116,0.0739 0.2984,0.31103 -0.23198,0.53225 -1.17862,0.49161 -1.04612,-0.0449 -1.25891,-0.26671 -0.54254,-0.5655 z m 26.94,0 c 0.64824,-0.27039 1.42276,-0.23713 1.72116,0.0739 0.2984,0.31103 -0.23198,0.53225 -1.17862,0.49161 -1.04612,-0.0449 -1.25891,-0.26671 -0.54254,-0.5655 z M 123.105,72.376 c 2.43237,-2.574 4.62454,-4.68 4.87149,-4.68 0.24695,0 -1.54112,2.106 -3.97349,4.68 -2.43237,2.574 -4.62454,4.68 -4.87149,4.68 -0.24695,0 1.54112,-2.106 3.97349,-4.68 z m 637.54624,-0.234 -4.45624,-4.914 4.7145,4.644814 c 4.3808,4.316044 5.12632,5.183186 4.45624,5.183186 -0.14204,0 -2.26356,-2.2113 -4.7145,-4.914 z M 659.49162,35.232605 c 0.64825,-0.270383 1.42277,-0.23713 1.72117,0.0739 0.2984,0.311025 -0.23198,0.532247 -1.17862,0.491605 -1.04612,-0.04491 -1.25891,-0.266704 -0.54255,-0.5655 z"
         id="path6" />
      <path
         style="fill:#5c7388"
         d="m 665.048,644.74 c 4.17634,-4.3758 7.7954,-7.956 8.04235,-7.956 0.24695,0 -2.96801,3.5802 -7.14435,7.956 -4.17634,4.3758 -7.7954,7.956 -8.04235,7.956 -0.24695,0 2.96801,-3.5802 7.14435,-7.956 z m 202.03838,-5.85 -13.00938,-13.806 13.2455,13.55989 c 12.30471,12.59677 13.65205,14.05211 13.00938,14.05211 -0.12986,0 -6.09033,-6.2127 -13.2455,-13.806 z M 765.8485,591.17415 c 1.85213,-0.20193 4.88288,-0.20193 6.735,0 1.85213,0.20194 0.33675,0.36716 -3.3675,0.36716 -3.70425,0 -5.21962,-0.16522 -3.3675,-0.36716 z M 861.78089,503.326 c 0.0431,-1.09039 0.25588,-1.31218 0.54255,-0.5655 0.2594,0.67568 0.2275,1.48298 -0.0709,1.794 -0.2984,0.31102 -0.51064,-0.2418 -0.47165,-1.2285 z M 675.96579,502 c 0,-1.287 0.20382,-1.8135 0.45294,-1.17 0.24911,0.6435 0.24911,1.6965 0,2.34 -0.24912,0.6435 -0.45294,0.117 -0.45294,-1.17 z m 185.8151,-14.586 c 0.0431,-1.09039 0.25588,-1.31218 0.54255,-0.5655 0.2594,0.67568 0.2275,1.48298 -0.0709,1.794 -0.2984,0.31103 -0.51064,-0.2418 -0.47165,-1.2285 z M 588.718,463.91212 c 16.63859,-0.66986 32.12488,-0.69626 31.74228,-0.0541 -0.23005,0.3861 -8.98155,0.61724 -19.44778,0.51364 -10.46622,-0.10361 -15.99875,-0.31039 -12.2945,-0.45952 z m 329.26667,0.0239 c -0.32927,-0.3432 -0.59248,-1.0803 -0.58492,-1.638 0.008,-0.61566 0.28919,-0.56206 0.71489,0.13643 0.509,0.83515 5.85784,1.22542 19.51775,1.42406 l 18.81661,0.27362 -18.93283,0.21395 c -10.41306,0.11767 -19.20224,-0.0669 -19.5315,-0.41006 z M 702.72647,425.95 c 3.72128,-4.13262 4.52753,-4.87571 4.52753,-4.17288 0,0.15021 -1.91948,2.15091 -4.2655,4.446 l -4.2655,4.17288 z m 131.99519,-0.468 -3.09466,-3.51 3.3675,3.22561 c 3.1344,3.00233 3.78039,3.79439 3.09466,3.79439 -0.15007,0 -1.66544,-1.5795 -3.3675,-3.51 z m -194.42515,-22.932 -2.63751,-3.042 2.9185,2.74912 c 1.60518,1.51201 2.9185,2.88091 2.9185,3.042 0,0.72311 -0.74097,0.0864 -3.19949,-2.74912 z"
         id="path5" />
      <path
         style="fill:#00a5b0"
         d="m 284.69204,967.23308 c -2.00473,-1.06248 -10.28878,-7.13414 -18.409,-13.49258 C 181.65293,887.47195 132.69569,801.92782 119.9744,698.092 114.63233,654.48801 115.49505,610.26091 122.70249,558.23858 127.36828,524.56143 126.89,521.82183 111.40985,493.55425 58.22542,396.43663 44.8294,285.30323 72.413682,170.04195 79.250778,141.47305 92.524405,112.83082 110.12952,88.657564 117.7378,78.210779 132.45735,63.315627 141.77229,56.637292 170.74032,35.868715 206.26584,29.982574 246.58,39.271946 c 31.54673,7.269141 67.40057,23.485139 102.73268,46.463999 7.97477,5.18653 14.40139,7.910801 28.16375,11.938729 45.54539,13.330096 94.37199,12.199906 139.66374,-3.232794 6.90495,-2.352792 12.84299,-5.283591 20.654,-10.194061 30.88575,-19.416635 51.97043,-29.808983 78.76183,-38.820608 38.6197,-12.990225 72.23209,-13.865344 100.87888,-2.626442 8.59972,3.373901 21.41569,10.445601 27.77849,15.32784 13.01915,9.989713 27.902,27.024975 38.61479,44.199391 5.58347,8.95125 15.78881,29.81571 21.14567,43.23161 7.94604,19.9003 15.92207,60.35544 19.52656,99.04039 1.55023,16.6378 2.11258,58.30551 0.94914,70.32808 -0.61958,6.40262 -0.87038,7.09939 -2.40489,6.68113 -1.6173,-0.44083 -1.72661,-1.73127 -1.9534,-23.06009 L 820.851,275.956 h -51.635 -51.635 l -0.25853,22.464 -0.25853,22.464 -6.47647,2.22015 c -3.56206,1.22109 -10.16734,4.01251 -14.6784,6.20318 l -8.20193,3.98302 -15.13906,-15.8002 -15.13906,-15.8002 -36.15151,37.67269 c -19.88333,20.71998 -36.15151,38.09133 -36.15151,38.60299 0,0.51167 6.69026,7.91272 14.86724,16.4468 l 14.86723,15.5165 -4.08984,8.75861 c -2.24941,4.81724 -4.97821,11.63363 -6.06399,15.14754 l -1.97415,6.38892 H 581.35724 559.982 v 53.80306 53.80306 l 21.19179,0.25094 21.19178,0.25094 4.23735,11.232 c 2.33054,6.1776 5.15737,13.08313 6.28185,15.34563 l 2.0445,4.11364 -15.12049,15.78081 -15.12049,15.78082 36.58359,38.13166 36.58359,38.13167 15.08363,-15.70151 15.08364,-15.70152 7.61395,3.66652 c 4.18768,2.01658 10.73726,4.82222 14.55463,6.23477 l 6.94068,2.56825 V 690.25737 712.6 h 22.899 c 12.59445,0 22.899,0.15268 22.899,0.33928 0,0.18661 -1.01752,5.55691 -2.26116,11.934 -9.47661,48.5939 -26.41955,91.36425 -51.86815,130.93472 -24.02542,37.35754 -54.74898,70.22565 -94.67574,101.28423 -13.4477,10.46081 -16.3143,11.97177 -22.71295,11.97177 -8.03194,0 -15.40169,-4.93444 -18.54057,-12.41392 -1.58484,-3.77644 -1.68835,-9.96335 -2.1647,-129.39008 -0.49312,-123.63364 -0.52735,-125.53757 -2.39781,-133.38 -8.59324,-36.02956 -27.02338,-63.89954 -55.22001,-83.50344 -27.08758,-18.83283 -60.20866,-25.86833 -93.51057,-19.86331 -34.08965,6.14707 -65.77959,27.89027 -85.12711,58.40765 -8.86603,13.98463 -15.6043,31.43845 -18.70747,48.45707 -1.78488,9.78873 -1.84293,13.56191 -2.04983,133.23162 l -0.21293,123.15759 -2.71525,4.57746 c -4.14438,6.98677 -9.04465,10.12522 -16.40595,10.50747 -4.72923,0.24557 -6.80566,-0.10216 -9.66776,-1.61903 z M 480.67677,187.50039 c 21.97834,-2.85646 39.50358,-6.87281 59.99823,-13.75011 15.47397,-5.19253 20.50531,-7.84695 22.28558,-11.75733 1.94061,-4.26259 1.90851,-6.97442 -0.12946,-10.93523 -1.72772,-3.35784 -6.47016,-6.60972 -9.63941,-6.60972 -1.03362,0 -6.69732,1.84241 -12.58601,4.09424 -29.08867,11.12351 -64.31658,17.43722 -97.2553,17.43056 -36.3293,-0.007 -69.31616,-6.00853 -102.42778,-18.63432 -4.16921,-1.58977 -8.41856,-2.89048 -9.44301,-2.89048 -5.08752,0 -11.26361,6.58642 -11.26361,12.01194 0,3.90975 2.78553,8.59068 6.18917,10.40057 11.59033,6.16316 48.43134,16.40392 71.15626,19.77943 27.09248,4.02426 56.43493,4.32803 83.11534,0.86045 z"
         id="path4" />
      <path
         style="fill:#314e69"
         d="m 754.6235,688.49968 c 8.02587,-0.15513 21.15913,-0.15513 29.185,0 8.02588,0.15513 1.45925,0.28205 -14.5925,0.28205 -16.05175,0 -22.61838,-0.12692 -14.5925,-0.28205 z M 678.069,631.168 c 2.93248,-3.0888 5.53383,-5.616 5.78078,-5.616 0.24695,0 -1.9503,2.5272 -4.88278,5.616 -2.93248,3.0888 -5.53383,5.616 -5.78078,5.616 -0.24695,0 1.9503,-2.5272 4.88278,-5.616 z m 25.08751,-67.626 -2.63751,-3.042 2.9185,2.74912 c 2.72045,2.56256 3.33127,3.33488 2.63751,3.33488 -0.15455,0 -1.46787,-1.3689 -2.9185,-3.042 z M 834.77,563.308 c 1.67547,-1.8018 3.24837,-3.276 3.49532,-3.276 0.24695,0 -0.92185,1.4742 -2.59732,3.276 -1.67547,1.8018 -3.24837,3.276 -3.49532,3.276 -0.24695,0 0.92185,-1.4742 2.59732,-3.276 z M 907.508,392.02 c 7.14877,-7.4646 13.19982,-13.572 13.44677,-13.572 0.24695,0 -5.4,6.1074 -12.54877,13.572 -7.14877,7.4646 -13.19982,13.572 -13.44677,13.572 -0.24695,0 5.4,-6.1074 12.54877,-13.572 z m -281.09004,-3.978 -9.41296,-10.062 9.6535,9.81128 c 5.30943,5.3962 9.6535,9.9241 9.6535,10.062 0,0.67598 -1.15109,-0.46548 -9.89404,-9.81128 z M 637.21,356.452 c 11.10452,-11.583 20.39208,-21.06 20.63903,-21.06 0.24695,0 -8.63651,9.477 -19.74103,21.06 -11.10452,11.583 -20.39208,21.06 -20.63903,21.06 -0.24695,0 8.63651,-9.477 19.74103,-21.06 z m 263.10652,-0.234 -20.19752,-21.294 20.4295,21.0522 c 18.98311,19.56173 20.83451,21.5358 20.19752,21.5358 -0.1276,0 -9.32087,-9.5823 -20.4295,-21.294 z"
         id="path3" />
      <path
         style="fill:#002446"
         d="m 740.48,668.75565 v -19.50834 l -8.19218,-2.09412 c -14.04011,-3.58899 -25.74345,-8.80164 -44.54514,-19.84033 l -3.79632,-2.22886 -13.27486,13.80424 -13.27485,13.80423 -20.18647,-21.05628 -20.18647,-21.05628 13.33373,-13.92117 13.33372,-13.92116 -5.02178,-8.8938 C 631.02595,560.3069 623.51898,540.32382 621.43766,527.974 l -0.59154,-3.51 H 601.63906 582.432 V 494.512 464.56 l 19.0825,-0.005 19.0825,-0.005 1.97941,-8.84844 c 3.23912,-14.47967 11.39149,-33.99896 20.04865,-48.0027 1.25248,-2.02599 0.8087,-2.61808 -11.93341,-15.92157 l -13.23426,-13.81732 20.20143,-21.04068 20.20143,-21.04068 13.33487,13.87597 13.33486,13.87597 4.85151,-3.23163 c 11.94843,-7.95894 28.90921,-15.36395 44.10422,-19.25571 l 6.54529,-1.67638 0.24236,-19.82187 0.24236,-19.82186 h 28.70028 28.70028 l 0.24236,19.763 0.24236,19.76301 6.39057,1.69097 c 15.98269,4.2291 32.18361,11.31537 44.25894,19.35884 l 4.85151,3.23163 13.33486,-13.87597 13.33487,-13.87597 20.20143,21.04068 20.20143,21.04068 -13.0193,13.5929 c -7.16062,7.47609 -13.01931,13.89552 -13.01931,14.26539 0,0.36987 1.3605,2.89197 3.02334,5.60467 7.49889,12.23343 13.5699,27.04384 17.56082,42.84017 l 2.48304,9.828 18.9984,0.25261 18.9984,0.25262 v 29.93338 29.93339 h -19.19223 -19.19223 l -0.58153,3.7906 c -1.71894,11.20455 -10.22017,33.53688 -17.64125,46.34276 l -4.69266,8.09769 13.35409,13.94243 13.3541,13.94243 -20.18647,21.05628 -20.18647,21.05628 -13.26835,-13.80423 -13.26836,-13.80424 -4.25182,2.59996 c -15.51969,9.4902 -34.21822,17.54345 -47.13132,20.29894 l -5.1635,1.10182 V 668.67436 688.264 H 769.216 740.48 Z m 50.15626,-79.68799 c 37.3437,-9.5062 65.10971,-40.68447 71.11235,-79.85159 1.60744,-10.48853 0.65952,-27.87377 -2.1347,-39.15135 -8.05628,-32.5154 -31.48008,-58.34498 -62.20527,-68.59413 -9.48563,-3.16418 -16.87671,-4.28845 -28.19264,-4.28845 -11.31593,0 -18.70701,1.12427 -28.19264,4.28845 -33.04657,11.02351 -56.8744,39.08473 -63.90709,75.26119 -2.15353,11.07782 -1.4039,29.82126 1.68892,42.22955 3.94067,15.80979 12.97449,32.22193 24.29385,44.13571 13.81868,14.54433 32.83477,24.49624 53.09596,27.78731 8.13665,1.32165 25.76567,0.39176 34.44126,-1.81669 z"
         id="path2" />
    </g>
  </g>
</svg>
