<?xml version="1.0" encoding="UTF-8" standalone="no"?>
<!-- Created with Inkscape (http://www.inkscape.org/) -->

<svg
   version="1.1"
   id="svg1"
   width="1000"
   height="1000"
   viewBox="0 0 1000 1000"
   xmlns="http://www.w3.org/2000/svg"
   xmlns:svg="http://www.w3.org/2000/svg">
  <defs
     id="defs1" />
  <g
     id="g1">
    <g
       id="g2"
       transform="matrix(0.9156131,0,0,0.9156131,49.210219,46.873742)">
      <path
         style="fill:#65c1cd"
         d="m 508.5,996 c 0.99549,-1.1 2.03498,-2 2.30998,-2 0.275,0 -0.31449,0.9 -1.30998,2 -0.99549,1.1 -2.03498,2 -2.30998,2 -0.275,0 0.31449,-0.9 1.30998,-2 z m 29.57895,-75.58333 c 0.048,-1.16495 0.28494,-1.4019 0.60416,-0.60417 0.28887,0.72187 0.25335,1.58438 -0.0789,1.91667 -0.33229,0.33229 -0.56864,-0.25834 -0.52522,-1.3125 z m -78,-4 c 0.048,-1.16495 0.28494,-1.4019 0.60416,-0.60417 0.28887,0.72187 0.25335,1.58438 -0.0789,1.91667 -0.33229,0.33229 -0.56864,-0.25834 -0.52522,-1.3125 z m 79,-1 c 0.048,-1.16495 0.28494,-1.4019 0.60416,-0.60417 0.28887,0.72187 0.25335,1.58438 -0.0789,1.91667 -0.33229,0.33229 -0.56864,-0.25834 -0.52522,-1.3125 z M 459,743.50424 V 577.00847 L 344.75,576.74996 230.5,576.49144 345.25,576.24572 460,576 v 167 c 0,91.85 -0.225,167 -0.5,167 -0.275,0 -0.5,-74.92309 -0.5,-166.49576 z M 540.49559,743.25001 540.5,576.5 l 114.25003,-0.006 114.25002,-0.006 -113.99709,0.26062 -113.9971,0.26062 -0.25734,166.49578 -0.25734,166.49578 z M 486.48832,742.5 c -2e-5,-91.3 0.11769,-128.79802 0.26158,-83.32894 0.14389,45.46908 0.14391,120.16908 4e-5,166 -0.14387,45.83092 -0.2616,8.62894 -0.26162,-82.67106 z m 27,0 c -2e-5,-91.3 0.11769,-128.79802 0.26158,-83.32894 0.14389,45.46908 0.14391,120.16908 4e-5,166 -0.14387,45.83092 -0.2616,8.62894 -0.26162,-82.67106 z M 793,564.5 c 1.86578,-1.925 3.61733,-3.5 3.89233,-3.5 0.275,0 -1.02655,1.575 -2.89233,3.5 -1.86578,1.925 -3.61733,3.5 -3.89233,3.5 -0.275,0 1.02655,-1.575 2.89233,-3.5 z M 293.25,549.25015 c 32.8625,-0.14624 86.6375,-0.14624 119.5,0 32.8625,0.14624 5.975,0.26589 -59.75,0.26589 -65.725,0 -92.6125,-0.11965 -59.75,-0.26589 z m 294,0 c 32.8625,-0.14624 86.6375,-0.14624 119.5,0 32.8625,0.14624 5.975,0.26589 -59.75,0.26589 -65.725,0 -92.6125,-0.11965 -59.75,-0.26589 z m -392.17105,-4.83348 c 0.048,-1.16495 0.28494,-1.4019 0.60416,-0.60417 0.28887,0.72187 0.25335,1.58438 -0.0789,1.91667 -0.3323,0.33229 -0.56864,-0.25834 -0.52522,-1.3125 z M 778.45471,498.5 c 2.8e-4,-21.45 0.1327,-30.0827 0.29426,-19.18378 0.16156,10.89892 0.16133,28.44892 -5.1e-4,39 C 778.58661,528.8673 778.45442,519.95 778.45471,498.5 Z M 221.45419,498 c 0,-21.175 0.13253,-29.8375 0.2945,-19.25 0.16197,10.5875 0.16197,27.9125 0,38.5 -0.16197,10.5875 -0.2945,1.925 -0.2945,-19.25 z m -26.37524,-46.58333 c 0.048,-1.16495 0.28494,-1.4019 0.60416,-0.60417 0.28887,0.72187 0.25335,1.58438 -0.0789,1.91667 -0.3323,0.33229 -0.56864,-0.25834 -0.52522,-1.3125 z M 203,434.68709 c 0,-0.1721 1.4625,-1.6346 3.25,-3.25 l 3.25,-2.93709 -2.93709,3.25 C 203.82513,434.77946 203,435.45965 203,434.68709 Z M 792.92431,431.25 790.5,428.5 l 2.75,2.42431 c 1.5125,1.33338 2.75,2.57088 2.75,2.75 0,0.78428 -0.8098,0.14598 -3.07569,-2.42431 z M 226.8125,420.31689 c 0.72187,-0.28887 1.58437,-0.25335 1.91667,0.0789 0.33229,0.33229 -0.25834,0.56864 -1.3125,0.52522 -1.16495,-0.048 -1.4019,-0.28494 -0.60417,-0.60416 z m 545,0 c 0.72187,-0.28887 1.58438,-0.25335 1.91667,0.0789 0.33229,0.33229 -0.25834,0.56864 -1.3125,0.52522 -1.16495,-0.048 -1.4019,-0.28494 -0.60417,-0.60416 z M 277.04682,411.25 c 31.3553,-31.91235 48.37817,-85.16538 51.98488,-162.62544 1.46402,-31.44225 -0.75671,-81.95276 -5.06153,-115.12456 -0.49963,-3.85 -0.92231,-7.7875 -0.93929,-8.75 -0.0293,-1.66023 9.10635,-1.75 178.09795,-1.75 h 178.12883 l -0.59525,4.75 c -2.4881,19.85454 -3.13985,34.52814 -3.14242,70.75 -0.003,42.96222 0.998,57.4507 6.03501,87.34579 9.1818,54.49472 29.40917,101.56002 55.61437,129.40421 l 4.4704,4.75 H 505.04467 268.44956 Z M 298.25,122.31067 c 0.9625,-0.25152 2.5375,-0.25152 3.5,0 0.9625,0.25153 0.175,0.45733 -1.75,0.45733 -1.925,0 -2.7125,-0.2058 -1.75,-0.45733 z m 400,0 c 0.9625,-0.25152 2.5375,-0.25152 3.5,0 0.9625,0.25153 0.175,0.45733 -1.75,0.45733 -1.925,0 -2.7125,-0.2058 -1.75,-0.45733 z M 300.75,95.337719 c 0.6875,-0.277412 1.8125,-0.277412 2.5,0 0.6875,0.277413 0.125,0.504386 -1.25,0.504386 -1.375,0 -1.9375,-0.226973 -1.25,-0.504386 z m 396,0 c 0.6875,-0.277412 1.8125,-0.277412 2.5,0 0.6875,0.277413 0.125,0.504386 -1.25,0.504386 -1.375,0 -1.9375,-0.226973 -1.25,-0.504386 z M 261.15789,85 c 0,-1.375 0.22698,-1.9375 0.50439,-1.25 0.27741,0.6875 0.27741,1.8125 0,2.5 -0.27741,0.6875 -0.50439,0.125 -0.50439,-1.25 z m 476.92106,0.416667 c 0.048,-1.164943 0.28494,-1.4019 0.60416,-0.604167 0.28887,0.721875 0.25335,1.584375 -0.0789,1.916667 -0.33229,0.332291 -0.56864,-0.258334 -0.52522,-1.3125 z M 288.15789,82 c 0,-1.375 0.22698,-1.9375 0.50439,-1.25 0.27741,0.6875 0.27741,1.8125 0,2.5 -0.27741,0.6875 -0.50439,0.125 -0.50439,-1.25 z m 422.92106,0.416667 c 0.048,-1.164943 0.28494,-1.4019 0.60416,-0.604167 0.28887,0.721875 0.25335,1.584375 -0.0789,1.916667 -0.33229,0.332291 -0.56864,-0.258334 -0.52522,-1.3125 z M 288.15789,41 c 0,-1.375 0.22698,-1.9375 0.50439,-1.25 0.27741,0.6875 0.27741,1.8125 0,2.5 -0.27741,0.6875 -0.50439,0.125 -0.50439,-1.25 z m 422.92106,0.416667 c 0.048,-1.164943 0.28494,-1.4019 0.60416,-0.604167 0.28887,0.721875 0.25335,1.584375 -0.0789,1.916667 -0.33229,0.332291 -0.56864,-0.258334 -0.52522,-1.3125 z M 261.15789,38 c 0,-1.375 0.22698,-1.9375 0.50439,-1.25 0.27741,0.6875 0.27741,1.8125 0,2.5 -0.27741,0.6875 -0.50439,0.125 -0.50439,-1.25 z m 477,0 c 0,-1.375 0.22698,-1.9375 0.50439,-1.25 0.27741,0.6875 0.27741,1.8125 0,2.5 -0.27741,0.6875 -0.50439,0.125 -0.50439,-1.25 z M 291,33.622445 c 0,-0.207656 0.7875,-0.995156 1.75,-1.75 1.58606,-1.243871 1.62143,-1.208501 0.37756,0.377555 C 291.82119,33.915748 291,34.445479 291,33.622445 Z M 349.5,24 c 0.99549,-1.1 2.03498,-2 2.30998,-2 0.275,0 -0.31449,0.9 -1.30998,2 -0.99549,1.1 -2.03498,2 -2.30998,2 -0.275,0 0.31449,-0.9 1.30998,-2 z M 273,13.5 c 1.86578,-1.925 3.61733,-3.5 3.89233,-3.5 0.275,0 -1.02655,1.575 -2.89233,3.5 -1.86578,1.925 -3.61733,3.5 -3.89233,3.5 -0.275,0 1.02655,-1.575 2.89233,-3.5 z M 452.232,14 c 0,-1.925 0.2058,-2.7125 0.45733,-1.75 0.25152,0.9625 0.25152,2.5375 0,3.5 C 452.4378,16.7125 452.232,15.925 452.232,14 Z M 725.43709,12.75 722.5,9.5 l 3.25,2.937091 c 1.7875,1.6154 3.25,3.0779 3.25,3.25 0,0.772561 -0.82513,0.09236 -3.56291,-2.937091 z M 295.8125,1.316886 c 0.72187,-0.2888706 1.58438,-0.2533443 1.91667,0.078947 0.33229,0.3322917 -0.25834,0.5686404 -1.3125,0.5252193 -1.16495,-0.047984 -1.4019,-0.2849403 -0.60417,-0.6041663 z m 407,0 c 0.72187,-0.2888706 1.58438,-0.2533443 1.91667,0.078947 0.33229,0.3322917 -0.25834,0.5686404 -1.3125,0.5252193 -1.16495,-0.047984 -1.4019,-0.2849403 -0.60417,-0.6041663 z"
         id="path3" />
      <path
         style="fill:#005061"
         d="m 493.17963,997.31824 c -1.82621,-0.89991 -4.36462,-3.02717 -5.64092,-4.72723 -6.34754,-8.45503 -15.6339,-32.03545 -22.79833,-57.89071 L 460.52842,919.5 460.24753,747.76608 459.96665,576.03216 342.21184,575.76608 224.45702,575.5 l -6.69643,-3.29687 c -8.53164,-4.2004 -15.26448,-10.94078 -19.17878,-19.20027 L 195.5,546.5 V 498 449.5 l 3.25566,-6.65483 c 5.3611,-10.95851 16.10813,-19.35155 28.0156,-21.87918 3.11605,-0.66145 97.3212,-0.91208 276.22874,-0.73489 l 271.5,0.2689 6.54737,3.10264 c 11.33669,5.37218 18.05208,12.81874 21.92332,24.31036 2.03713,6.04712 2.0953,7.72548 1.81691,52.41707 L 804.5,546.5 l -3.21692,6.57366 c -3.92622,8.02307 -11.98178,15.958 -20.02993,19.72998 L 775.5,575.5 658,576 l -117.5,0.5 -0.50003,170.5 -0.50002,170.5 -2.29512,8 c -4.45113,15.51516 -14.13972,43.31129 -18.8276,54.01554 -3.2055,7.31941 -6.08799,12.23479 -8.88909,15.15818 -3.67679,3.83731 -4.64503,4.32371 -8.56672,4.30351 -2.43178,-0.0125 -5.91559,-0.75907 -7.74179,-1.65899 z M 509.83225,924.5 513.5,912.5 513.76706,744.75 514.03412,577 H 499.9973 485.96048 l 0.29179,168.25 0.29178,168.25 2.75733,10 c 2.8733,10.42059 7.05818,23.92264 8.9546,28.89103 1.07049,2.80458 1.20525,2.61019 4.506,-6.5 1.87138,-5.16507 5.053,-14.79103 7.07027,-21.39103 z M 771.61446,547.61446 c 6.86652,-4.1571 6.85098,-4.05975 7.20089,-45.11446 0.38495,-45.16701 0.2451,-46.67484 -4.79673,-51.71668 L 770.23529,447 H 500 229.76471 l -3.78333,3.78332 c -5.04905,5.04906 -5.19303,6.60099 -4.80208,51.76274 0.29923,34.56619 0.44955,37.24379 2.24556,40 2.4335,3.73451 4.30307,5.19956 8.07514,6.3279 1.74376,0.52161 114.80567,0.84058 270,0.76172 259.70076,-0.13197 267.08514,-0.18723 270.11446,-2.02122 z M 297.33611,121.94323 C 279.78472,119.65626 264.97549,104.90466 262.03398,86.778469 260.7333,78.763457 260.70523,44.373027 261.99294,36.5 264.20447,22.97872 273.65908,10.843839 286.76239,4.7086949 L 293.5,1.5540587 l 25,-0.3287964 c 22.94795,-0.30180815 25.28095,-0.1745614 28.42273,1.5502359 9.4789,5.2037785 8.91942,18.4180658 -0.99381,23.4729478 -2.94955,1.504007 -6.43687,1.748663 -24.94452,1.75 -24.47676,0.0018 -26.66989,0.544779 -30.71795,7.605655 -2.12217,3.701623 -2.23437,4.982103 -2.25,25.678018 -0.0186,24.559412 0.42079,26.661386 6.5496,31.336059 L 298.34432,95.5 H 500 701.65568 l 3.77827,-2.881822 C 711.5352,87.964526 712,85.786345 712,61.847843 c 0,-19.414873 -0.17585,-21.579648 -2.07095,-25.49441 -1.13903,-2.352908 -3.55464,-5.194984 -5.36804,-6.315724 -3.26827,-2.019903 -4.33153,-2.037901 -121.67904,-2.059671 -114.13256,-0.02117 -118.53215,-0.09014 -122.56565,-1.921417 -7.02776,-3.190706 -9.5224,-11.926269 -5.3568,-18.7580725 4.14386,-6.79616682 -4.88614,-6.37372347 129.78549,-6.0716497 L 706.5,1.5 l 6.73761,3.1816655 c 12.80657,6.0475815 21.48009,16.7731955 24.2909,30.0379395 1.74816,8.249923 2.00771,44.012385 0.38321,52.80014 -3.34303,18.084115 -18.11772,32.131275 -36.27773,34.491365 -8.78071,1.14115 -395.51751,1.07621 -404.29788,-0.0679 z"
         id="path2" />
    </g>
  </g>
</svg>
